<svg xmlns="http://www.w3.org/2000/svg" xmlns:xlink="http://www.w3.org/1999/xlink" width="66.391" height="66.391" viewBox="0 0 66.391 66.391">
  <defs>
    <clipPath id="clip-path">
      <rect id="사각형_4875" data-name="사각형 4875" width="51" height="51" transform="translate(318.305 199.41) rotate(-22)" fill="#fff" stroke="#707070" stroke-width="1"/>
    </clipPath>
    <clipPath id="clip-path-2">
      <rect id="사각형_4874" data-name="사각형 4874" width="193.487" height="422.541" fill="#66d9e8"/>
    </clipPath>
  </defs>
  <g id="hand-left" transform="translate(-318.305 -180.305)" clip-path="url(#clip-path)">
    <g id="body" transform="translate(172.756 13.887)">
      <g id="그룹_1634" data-name="그룹 1634" clip-path="url(#clip-path-2)">
        <path id="패스_506" data-name="패스 506" d="M96.775,20.927c2.71-.817,3.848.5,4.387,1.345a3.639,3.639,0,0,1,.3,2.9,29.956,29.956,0,0,1-1.361,3.649c-1.233,2.921.014,5.326-3.342,5.326-1.055.074-3.679.8-3.559-.9.16-2.293,2.934-11.385,3.578-12.319" transform="translate(16.742 3.713)" fill="#66d9e8"/>
        <path id="패스_507" data-name="패스 507" d="M68.53,20.927c-2.71-.817-3.848.5-4.387,1.345a3.639,3.639,0,0,0-.3,2.9,29.954,29.954,0,0,0,1.361,3.649c1.233,2.921-.014,5.326,3.342,5.326,1.055.074,3.679.8,3.559-.9-.16-2.293-2.934-11.385-3.578-12.319" transform="translate(11.44 3.713)" fill="#66d9e8"/>
        <path id="패스_508" data-name="패스 508" d="M183.05,181.852a14.07,14.07,0,0,1,5.059,2.24c2.47,1.524,4.325,1.452,5.2.235,1.226-1.7-4.327-4.662-6.921-6.678-3.229-2.51-8.807-3.81-11.572-6.037a3.561,3.561,0,0,1-.569-.633,8.786,8.786,0,0,1-1.175-2.239c-1.7-4.673-6.151-20.044-9.012-30.918-3.067-11.656-5.886-17.544-7.613-20.521-.924-5.05-1.266-10.621-4.911-22.675.512-21.469-5.08-28.295-10.075-31.63-8.364-5.584-15.557-3.693-31.714-13.379l-1.764-15.208H85.649L83.885,49.616C67.728,59.3,60.534,57.411,52.171,63c-5,3.335-10.586,10.16-10.075,31.63-3.644,12.054-3.987,17.625-4.911,22.675-1.726,2.977-4.546,8.865-7.613,20.521-.789,3-7.022,26.114-9.541,32.284a4.7,4.7,0,0,1-1.362,1.911c-2.765,2.227-8.344,3.528-11.572,6.037-2.594,2.017-8.147,4.983-6.921,6.678.88,1.217,2.734,1.289,5.2-.235a14.069,14.069,0,0,1,5.059-2.24,1.022,1.022,0,0,1,1.043,1.443c-.783,1.748-2.918,4.663-5.455,9.414-.665,1.246-4.394,6.26-5.7,9.423a1.752,1.752,0,0,0,2.934,1.807,48.317,48.317,0,0,0,6.088-8.158c.433-.8,2.511-4.3,3.123-5.293-.366,1.223-2.337,5.192-2.878,6.548-.9,2.257-3.672,8.505-4.6,10.985-.595,1.6,2.13,2.947,3.305,1.381a51.479,51.479,0,0,0,6.086-11.122s1.752-3.918,2.677-6.284c-.53,2.523-1.073,3.612-1.63,6.234,0,0-2.817,7.242-3.115,9.465a1.774,1.774,0,0,0,3.24,1.151c1.325-2,3.911-8.506,4.264-9.445,1.495-3.966,2.537-6.988,2.537-6.988s-.475,3.081-.829,4.9c-.191.98-1.8,5.228-1.885,8.069A1.531,1.531,0,0,0,22.071,207c1.931-1.309,3.771-8.7,3.771-8.7.775-3.223,2.615-9.719,3.353-11.6,1.833-4.665.986-7.582.906-10.321a6.823,6.823,0,0,1,.481-1.929c.847-2.153,3.45-6.92,12.336-21.554,8.379-13.8,10.271-24.843,10.271-24.843,4.294-6.237,6.562-13.14,8.819-18.19,4.735,15.765,4.312,23.211,3.305,38.393-2.212,33.416-11.7,44.831-10.131,86.942.724,19.5,6.816,39.017,6.639,46.025-.184,7.28-.6,15.289-1.1,20.223-.829,8.182-2.289,16.369-1.91,24.623.37,8.066,3.624,15.663,6.019,23.314a129.451,129.451,0,0,1,4.158,19.144c2.237,14.676,3.857,18.911-8.595,36.7-1.335,1.91-3.868,5.122-3.1,7.666.713,2.344,3.929,2.685,5.924,2.828,14.921,1.071,21.1,1.05,22.562-2.112a6.011,6.011,0,0,0,.133-4.421c-3.473-10.322-1.319-20.952-2.6-31.514-.966-7.965-1.407-9.309.694-20.8,1.325-7.242,2.731-14.485,3.413-21.823,2.028-21.855-4.049-26.871-3.748-39.967.309-13.412,12.672-71.1,11.2-96.222a1.426,1.426,0,0,1,1.406-1.5c.359,0,.74,0,1.1,0a1.418,1.418,0,0,1,1.4,1.491c-1.636,35.326,10.866,82.74,11.177,96.23.3,13.1-5.776,18.112-3.747,39.967.681,7.339,2.088,14.582,3.412,21.823,2.1,11.494,1.66,12.838.694,20.8-1.281,10.562.874,21.192-2.6,31.514a6.017,6.017,0,0,0,.134,4.421c1.464,3.161,7.639,3.183,22.561,2.112,2-.143,5.213-.484,5.924-2.828.773-2.544-1.759-5.757-3.1-7.666-12.452-17.788-10.831-22.023-8.594-36.7a129.3,129.3,0,0,1,4.158-19.144c2.394-7.651,5.647-15.248,6.017-23.314.379-8.254-1.081-16.441-1.909-24.623-.5-4.933-.915-12.943-1.1-20.223-.178-7.008,5.914-26.528,6.639-46.025,1.57-42.237-4.976-53.628-10.055-86.865-1.924-12.591-1.728-23.8,1.974-39.724a181.258,181.258,0,0,0,10.483,19.7s1.483,10.787,9.863,24.588c8.788,14.477,11.428,19.3,12.3,21.481a6.026,6.026,0,0,1,.321,2.423c-.179,2.511-.7,5.293.95,9.495.737,1.878,2.578,8.374,3.353,11.6,0,0,1.84,7.392,3.771,8.7a1.531,1.531,0,0,0,2.422-1.219c-.085-2.841-1.694-7.088-1.885-8.069-.354-1.817-.717-4.162-.717-4.162s.925,2.05,2.425,6.253c.337.945,2.94,7.447,4.264,9.445a1.774,1.774,0,0,0,3.24-1.153c-.3-2.222-3.115-9.465-3.115-9.465-.557-2.621-1.449-4.306-1.978-6.829.925,2.366,3.274,6.88,3.274,6.88a53.728,53.728,0,0,0,5.837,11.122c1.175,1.565,3.9.217,3.305-1.381-.924-2.48-3.693-8.728-4.6-10.986-.48-1.2-3.255-7.134-3.3-7.272.611.991,3.107,5.222,3.54,6.019a48.309,48.309,0,0,0,6.088,8.157,1.751,1.751,0,0,0,2.934-1.806c-1.3-3.163-5.032-8.617-5.7-9.863-2.536-4.75-4.671-7.226-5.455-8.975a1.021,1.021,0,0,1,1.043-1.442" transform="translate(0 6.181)" fill="#66d9e8"/>
        <path id="패스_509" data-name="패스 509" d="M102.832,12.519C102.511,9.917,100.6-.1,85.467,0H84.2C69.06-.1,67.152,9.917,66.832,12.519,65.273,25.2,67.614,30.432,68.3,36.236c.132,1.115.528,3.343.945,5.553a13.812,13.812,0,0,0,7.478,9.854A20.151,20.151,0,0,0,84.6,53.964a.982.982,0,0,0,.236.009c.078,0,.159.011.237.008a20.49,20.49,0,0,0,7.868-2.339,13.806,13.806,0,0,0,7.478-9.855c.416-2.208.813-4.437.945-5.551.689-5.8,3.031-11.038,1.472-23.717" transform="translate(11.911 0)" fill="#66d9e8"/>
      </g>
    </g>
  </g>
</svg>
