<svg xmlns="http://www.w3.org/2000/svg" viewBox="0 0 165.87 165.87"><defs><style>.cls-1{fill:#f3d8cc;}.cls-2{fill:#fff;}.cls-3{fill:#343231;}.cls-4{fill:#e5183e;}</style></defs><g id="레이어_2" data-name="레이어 2"><g id="Object"><rect class="cls-1" width="165.87" height="165.87" rx="43.52"/><ellipse class="cls-2" cx="55.54" cy="89.73" rx="9.08" ry="15.3"/><ellipse class="cls-2" cx="115.54" cy="89.73" rx="9.08" ry="15.3"/><ellipse class="cls-3" cx="55.54" cy="89.73" rx="6.66" ry="11.23"/><ellipse class="cls-3" cx="115.6" cy="89.73" rx="6.66" ry="11.23"/><path class="cls-2" d="M144.37,56.07c0,7.41-3,9.52-7.05,9.52s-7.74-2.11-7.74-9.52,3-22.74,7.12-22.74S144.37,48.65,144.37,56.07Z"/><path class="cls-2" d="M97.52,40.1c0,5.77-2.31,7.41-5.48,7.41s-6-1.64-6-7.41,2.36-17.69,5.54-17.69S97.52,34.33,97.52,40.1Z"/><path class="cls-2" d="M43.67,56.42c0,5.75-2.3,7.39-5.47,7.39s-6-1.64-6-7.39,2.36-17.65,5.53-17.65S43.67,50.67,43.67,56.42Z"/><path class="cls-2" d="M69,48.24c0,4-1.58,5.08-3.76,5.08s-4.13-1.12-4.13-5.08,1.62-12.13,3.8-12.13S69,44.29,69,48.24Z"/><path class="cls-2" d="M113,55.45c0,4-1.59,5.08-3.77,5.08s-4.13-1.12-4.13-5.08,1.62-12.13,3.8-12.13S113,51.49,113,55.45Z"/><path class="cls-4" d="M15.33,126.72a2.54,2.54,0,0,1-1.1-.26,2.47,2.47,0,0,1-1.11-3.31L19.7,110a2.46,2.46,0,0,1,4.41,2.2l-6.57,13.15A2.48,2.48,0,0,1,15.33,126.72Z"/><path class="cls-4" d="M26,126.72a2.57,2.57,0,0,1-1.1-.26,2.46,2.46,0,0,1-1.1-3.31L30.38,110a2.47,2.47,0,0,1,4.42,2.2l-6.58,13.15A2.46,2.46,0,0,1,26,126.72Z"/><path class="cls-4" d="M36.7,126.72a2.54,2.54,0,0,1-1.1-.26,2.48,2.48,0,0,1-1.11-3.31L41.07,110a2.46,2.46,0,0,1,4.41,2.2l-6.57,13.15A2.48,2.48,0,0,1,36.7,126.72Z"/><path class="cls-4" d="M122.59,126.72a2.54,2.54,0,0,1-1.1-.26,2.46,2.46,0,0,1-1.1-3.31L127,110a2.46,2.46,0,0,1,4.41,2.2l-6.57,13.15A2.48,2.48,0,0,1,122.59,126.72Z"/><path class="cls-4" d="M133.27,126.72a2.57,2.57,0,0,1-1.1-.26,2.47,2.47,0,0,1-1.1-3.31L137.65,110a2.46,2.46,0,0,1,4.41,2.2l-6.58,13.15A2.46,2.46,0,0,1,133.27,126.72Z"/><path class="cls-4" d="M144,126.72a2.54,2.54,0,0,1-1.1-.26,2.46,2.46,0,0,1-1.1-3.31L148.33,110a2.46,2.46,0,0,1,4.41,2.2l-6.57,13.15A2.48,2.48,0,0,1,144,126.72Z"/></g></g></svg>