<svg xmlns="http://www.w3.org/2000/svg" viewBox="0 0 165.94 165.87"><defs><style>.cls-1{fill:#89b23c;}.cls-2{fill:#fff;}.cls-3{fill:#343231;}</style></defs><g id="레이어_2" data-name="레이어 2"><g id="Object"><path class="cls-1" d="M122.43,165.87H43.52A43.52,43.52,0,0,1,0,122.35V43.52A43.51,43.51,0,0,1,43.52,0h78.86a43.51,43.51,0,0,1,43.51,43.49l.05,78.83A43.51,43.51,0,0,1,122.43,165.87Z"/><path class="cls-2" d="M116.51,120.24c-3.13,0-6.71-1.46-10.71-4.35-3.43-2.48-6.2-3.41-7.41-2.49A7.63,7.63,0,0,0,97.1,115a13.9,13.9,0,0,1-2.5,2.93c-4.08,3.46-9.7,2.51-13.6.48a42,42,0,0,1-4.12-2.58,25.78,25.78,0,0,0-4.27-2.56A10.9,10.9,0,0,0,62,114.66c-.4.32-.81.68-1.25,1.07a15.38,15.38,0,0,1-4.57,3.12c-5.72,2.27-10.53-1.2-14.39-4-2.17-1.56-4.21-3-6.18-3.56a6.66,6.66,0,0,0-7.53,4.14,3.65,3.65,0,1,1-6.95-2.21,13.88,13.88,0,0,1,16.34-9c3.28.87,6.09,2.9,8.58,4.69,3.69,2.66,5.63,3.84,7.44,3.12a9.65,9.65,0,0,0,2.41-1.78c.51-.45,1-.92,1.61-1.37a18.12,18.12,0,0,1,17.94-2.39A31.88,31.88,0,0,1,81,109.79a32.29,32.29,0,0,0,3.38,2.13c1.85,1,4.33,1.42,5.51.43a8.76,8.76,0,0,0,1.23-1.54A13.58,13.58,0,0,1,94,107.59c2.85-2.17,8-3.51,16.1,2.39,3.52,2.55,6.26,3.51,7.51,2.62a7.82,7.82,0,0,0,1.29-1.42c.34-.43.68-.86,1-1.26a15.22,15.22,0,0,1,24.91,5.51,3.64,3.64,0,1,1-7,2.12c-.8-2.59-3.39-4-5.56-4.51s-5.13-.28-7,1.75c-.26.29-.5.6-.74.91a13.73,13.73,0,0,1-2.82,2.86A8.92,8.92,0,0,1,116.51,120.24Z"/><path class="cls-3" d="M34.73,61.61a3,3,0,0,0,2,1.36c8.65,2.26,25.67-.62,27.06-11.53.22-1.79-.7-6.15-3.27-4.08S56,52.57,53.21,54.71a14.52,14.52,0,0,1-9.41,3.13c-2.25-.08-4.7-.58-6.9.11C34.91,58.56,34,60.3,34.73,61.61Z"/><path class="cls-3" d="M129.31,61.61a3,3,0,0,1-2,1.36c-8.66,2.26-25.67-.62-27.06-11.53-.23-1.79.69-6.15,3.26-4.08s4.55,5.21,7.34,7.35a14.52,14.52,0,0,0,9.41,3.13c2.25-.08,4.7-.58,6.9.11C129.13,58.56,130,60.3,129.31,61.61Z"/><path class="cls-3" d="M63.08,76.35a10.52,10.52,0,0,1,2.79,1.43c4.32,3.24-.38,7.12-3.41,9-3.28,2.06-8.61,5.74-12.71,4.94a2.34,2.34,0,0,1-1.65-1c-1.54-2.7,2.78-4,4.53-4.73,1.29-.56,3.84-1.82,3.69-3.57a2.23,2.23,0,0,0-.74-1.33c-2.56-2.51-8.07-1.77-9.08-5.94a1.83,1.83,0,0,1,.33-1.62,2.44,2.44,0,0,1,1.5-.69c3.43-.58,6.8.6,9.93,1.86C59.79,75.39,61.49,75.76,63.08,76.35Z"/><path class="cls-3" d="M101,76.35a10.52,10.52,0,0,0-2.79,1.43c-4.32,3.24.38,7.12,3.41,9,3.28,2.06,8.62,5.74,12.71,4.94a2.34,2.34,0,0,0,1.65-1c1.54-2.7-2.78-4-4.53-4.73-1.29-.56-3.84-1.82-3.69-3.57a2.23,2.23,0,0,1,.74-1.33c2.56-2.51,8.07-1.77,9.08-5.94a1.8,1.8,0,0,0-.33-1.62,2.44,2.44,0,0,0-1.5-.69c-3.42-.58-6.79.6-9.93,1.86C104.25,75.39,102.55,75.76,101,76.35Z"/></g></g></svg>