<svg xmlns="http://www.w3.org/2000/svg" viewBox="0 0 165.94 165.87"><defs><style>.cls-1{fill:#a6d9e4;}.cls-2{fill:#343231;}.cls-3{fill:#fff;}</style></defs><g id="레이어_2" data-name="레이어 2"><g id="Object"><path class="cls-1" d="M121.93,165.87H44a44,44,0,0,1-44-44V44A44,44,0,0,1,44,0h77.86a44,44,0,0,1,44,44l.05,77.83A44,44,0,0,1,121.93,165.87Z"/><path class="cls-2" d="M57.06,50.77c.64-.13,1.42-.21,1.83.3a1.5,1.5,0,0,1,.27.91c.12,2.32-1.38,4.47-3.27,5.85-3.38,2.47-7.81,2.89-12,3-4.72.16-9.73,0-13.72-2.52a6.69,6.69,0,0,1-3.33-4.51A3.32,3.32,0,0,1,31,50.07c2.22.64,4,2.09,6.38,2.63C44,54.22,50.61,52.13,57.06,50.77Z"/><path class="cls-2" d="M109.23,50.77c-.64-.13-1.42-.21-1.83.3a1.51,1.51,0,0,0-.28.91c-.12,2.32,1.39,4.47,3.27,5.85,3.39,2.47,7.82,2.89,12,3,4.71.16,9.72,0,13.71-2.52a6.7,6.7,0,0,0,3.34-4.51,3.32,3.32,0,0,0-4.16-3.77c-2.23.64-4,2.09-6.38,2.63C122.3,54.22,115.67,52.13,109.23,50.77Z"/><rect class="cls-3" x="45.13" y="86.08" width="76.08" height="45.65" rx="15.28"/><path class="cls-3" d="M0,65.21a40.46,40.46,0,0,0,4.37,3.32l47.47,32.56-.4-6C50,94.79,7.48,65.08,0,59.86Z"/><path class="cls-3" d="M0,83.79l51.84,35.35-.4-6C50,112.83,7.48,83.47,0,78.25Z"/><path class="cls-3" d="M165.94,68.53l-51.5,32.56.4-6c1.42-.35,43.62-25.57,51.1-30.79Z"/><path class="cls-3" d="M165.94,86.57l-51.5,32.57.4-6c1.42-.36,43.62-25.57,51.1-30.79Z"/></g></g></svg>