<svg xmlns="http://www.w3.org/2000/svg" viewBox="0 0 165.87 165.87"><defs><style>.cls-1{fill:#fbc600;}.cls-2{fill:#343231;}.cls-3{fill:#fff;}</style></defs><g id="레이어_2" data-name="레이어 2"><g id="Object"><rect class="cls-1" width="165.87" height="165.87" rx="43.52"/><ellipse class="cls-2" cx="46.96" cy="66.22" rx="7.19" ry="12.13"/><ellipse class="cls-2" cx="118.91" cy="66.22" rx="7.19" ry="12.13"/><path class="cls-3" d="M36.83,109.37a12.18,12.18,0,0,0,12,9.94h1.51v-9.94Z"/><path class="cls-3" d="M118.47,119.23A12.18,12.18,0,0,0,129,109.37H118.47Z"/><path class="cls-3" d="M129.07,104.93a12.18,12.18,0,0,0-10.6-10.07v10.07Z"/><rect class="cls-3" x="102.53" y="94.77" width="11.5" height="10.16"/><rect class="cls-3" x="54.73" y="94.77" width="11.5" height="10.16"/><rect class="cls-3" x="70.66" y="94.77" width="11.5" height="10.16"/><rect class="cls-3" x="86.6" y="94.77" width="11.5" height="10.16"/><path class="cls-3" d="M50.29,94.77H48.78a12.18,12.18,0,0,0-12,10.16H50.29Z"/><rect class="cls-3" x="86.6" y="109.37" width="11.5" height="9.94"/><rect class="cls-3" x="70.66" y="109.37" width="11.5" height="9.94"/><rect class="cls-3" x="54.73" y="109.37" width="11.5" height="9.94"/><rect class="cls-3" x="102.53" y="109.37" width="11.5" height="9.94"/><path class="cls-2" d="M117.08,90.34H48.78a16.61,16.61,0,0,0-16.6,16.59v.22a2.23,2.23,0,0,1,2.22-2.22h.16A14.36,14.36,0,0,1,48.78,92.56h1.74a2.2,2.2,0,0,1,4,0h12a2.2,2.2,0,0,1,4,0h12a2.2,2.2,0,0,1,4,0h12a2.2,2.2,0,0,1,4,0h12a2.2,2.2,0,0,1,4,.06,14.36,14.36,0,0,1,13,12.4,2.2,2.2,0,0,1,0,4.27,14.37,14.37,0,0,1-12.84,12.17,2.2,2.2,0,0,1-4.39.07H102.51a2.21,2.21,0,0,1-4.39,0H86.58a2.21,2.21,0,0,1-4.39,0H70.64a2.21,2.21,0,0,1-4.39,0H54.71a2.21,2.21,0,0,1-4.39,0H48.78a14.38,14.38,0,0,1-14.19-12.16H34.4a2.22,2.22,0,0,1-2.22-2.22,16.62,16.62,0,0,0,16.6,16.6h68.3a16.62,16.62,0,0,0,16.6-16.6v-.22A16.61,16.61,0,0,0,117.08,90.34Z"/><path class="cls-2" d="M98.1,119.31H86.6v2c0,.08,0,.16,0,.24H98.12a1.94,1.94,0,0,1,0-.24Z"/><path class="cls-2" d="M50.29,119.31H48.78a12.18,12.18,0,0,1-12-9.94H34.59a14.38,14.38,0,0,0,14.19,12.16h1.54a2,2,0,0,1,0-.24Z"/><path class="cls-2" d="M102.53,94.77H114V93.52a2.19,2.19,0,0,1,.23-1h-12a2.18,2.18,0,0,1,.22,1Z"/><path class="cls-2" d="M82.16,119.31H70.66v2a1.94,1.94,0,0,1,0,.24H82.19a2,2,0,0,1,0-.24Z"/><path class="cls-2" d="M48.78,94.77h1.51V93.52a2.19,2.19,0,0,1,.23-1H48.78a14.36,14.36,0,0,0-14.22,12.37H36.8A12.18,12.18,0,0,1,48.78,94.77Z"/><path class="cls-2" d="M114,119.31h-11.5v2a1.94,1.94,0,0,1,0,.24h11.55a2,2,0,0,1,0-.24Z"/><path class="cls-2" d="M66.23,119.31H54.73v2c0,.08,0,.16,0,.24H66.25a1.94,1.94,0,0,1,0-.24Z"/><path class="cls-2" d="M86.6,94.77H98.1V93.52a2.19,2.19,0,0,1,.23-1h-12a2.19,2.19,0,0,1,.23,1Z"/><path class="cls-2" d="M70.66,94.77h11.5V93.52a2.19,2.19,0,0,1,.23-1h-12a2.18,2.18,0,0,1,.22,1Z"/><path class="cls-2" d="M118.47,94.86a12.18,12.18,0,0,1,10.6,10.07h1.67a2.26,2.26,0,0,1,.58.09,14.36,14.36,0,0,0-13-12.4,2.08,2.08,0,0,1,.2.9Z"/><path class="cls-2" d="M54.73,94.77h11.5V93.52a2.19,2.19,0,0,1,.23-1h-12a2.19,2.19,0,0,1,.23,1Z"/><path class="cls-2" d="M129,109.37a12.18,12.18,0,0,1-10.56,9.86v2.06a1,1,0,0,1,0,.17,14.37,14.37,0,0,0,12.84-12.17,2,2,0,0,1-.55.08Z"/><rect class="cls-2" x="70.66" y="107.15" width="11.5" height="2.22"/><rect class="cls-2" x="102.53" y="104.93" width="11.5" height="2.22"/><rect class="cls-2" x="86.6" y="104.93" width="11.5" height="2.22"/><rect class="cls-2" x="86.6" y="107.15" width="11.5" height="2.22"/><path class="cls-2" d="M118.47,107.15h10.77v-.22a13.27,13.27,0,0,0-.17-2h-10.6Z"/><rect class="cls-2" x="70.66" y="104.93" width="11.5" height="2.22"/><path class="cls-2" d="M118.47,107.57H129a25.88,25.88,0,0,0,.21-3.33H118.47Z"/><rect class="cls-2" x="102.53" y="107.15" width="11.5" height="2.22"/><rect class="cls-2" x="54.73" y="104.93" width="11.5" height="2.22"/><path class="cls-2" d="M50.29,104.93H36.8a12.09,12.09,0,0,0-.18,2v.22H50.29Z"/><rect class="cls-2" x="54.73" y="107.15" width="11.5" height="2.22"/><path class="cls-2" d="M50.29,109.37v-2.22H36.62a12.47,12.47,0,0,0,.21,2.22Z"/><path class="cls-2" d="M131.46,107.15a15.07,15.07,0,0,1-.17,2.14,2.2,2.2,0,0,0,0-4.27,15.06,15.06,0,0,1,.14,1.91Z"/><path class="cls-2" d="M34.4,109.37h.19a14.66,14.66,0,0,1-.19-2.22v-.22a14.71,14.71,0,0,1,.16-2H34.4a2.22,2.22,0,0,0,0,4.44Z"/><path class="cls-2" d="M129.07,104.93a13.27,13.27,0,0,1,.17,2v.22h0a11.61,11.61,0,0,1-.21,2.22h1.71a2,2,0,0,0,.55-.08,15.07,15.07,0,0,0,.17-2.14v-.22a15.06,15.06,0,0,0-.14-1.91,2.26,2.26,0,0,0-.58-.09Z"/><path class="cls-2" d="M34.4,107.15h2.22v-.22a12.09,12.09,0,0,1,.18-2H34.56a14.71,14.71,0,0,0-.16,2Z"/><path class="cls-2" d="M36.62,107.15H34.4a14.66,14.66,0,0,0,.19,2.22h2.24A12.47,12.47,0,0,1,36.62,107.15Z"/><rect class="cls-2" x="50.29" y="94.77" width="2.22" height="10.16"/><rect class="cls-2" x="50.29" y="109.37" width="2.22" height="9.94"/><rect class="cls-2" x="52.51" y="94.77" width="2.22" height="10.16"/><rect class="cls-2" x="52.51" y="109.37" width="2.22" height="9.94"/><path class="cls-2" d="M52.51,123.51a2.23,2.23,0,0,0,2.2-2H50.32A2.21,2.21,0,0,0,52.51,123.51Z"/><path class="cls-2" d="M52.51,91.3a2.22,2.22,0,0,0-2,1.26h4A2.22,2.22,0,0,0,52.51,91.3Z"/><path class="cls-2" d="M54.73,119.31H52.51v0H50.29v2a2,2,0,0,0,0,.24h4.39c0-.08,0-.16,0-.24Z"/><path class="cls-2" d="M50.29,94.77h2.22v0h2.22V93.52a2.19,2.19,0,0,0-.23-1h-4a2.19,2.19,0,0,0-.23,1Z"/><rect class="cls-2" x="50.29" y="107.15" width="2.22" height="2.22"/><rect class="cls-2" x="50.29" y="104.93" width="2.22" height="2.22"/><rect class="cls-2" x="52.51" y="104.93" width="2.22" height="2.22"/><rect class="cls-2" x="52.51" y="107.15" width="2.22" height="2.22"/><rect class="cls-2" x="68.45" y="109.37" width="2.22" height="9.94"/><rect class="cls-2" x="68.45" y="94.77" width="2.22" height="10.16"/><rect class="cls-2" x="66.23" y="94.77" width="2.22" height="10.16"/><rect class="cls-2" x="66.23" y="109.37" width="2.22" height="9.94"/><path class="cls-2" d="M68.45,91.3a2.22,2.22,0,0,0-2,1.26h4A2.23,2.23,0,0,0,68.45,91.3Z"/><path class="cls-2" d="M68.45,123.51a2.21,2.21,0,0,0,2.19-2H66.25A2.21,2.21,0,0,0,68.45,123.51Z"/><path class="cls-2" d="M70.66,119.31H68.45v0H66.23v2a1.94,1.94,0,0,0,0,.24h4.39a1.94,1.94,0,0,0,0-.24Z"/><path class="cls-2" d="M66.23,94.77h2.22v0h2.21V93.52a2.18,2.18,0,0,0-.22-1h-4a2.19,2.19,0,0,0-.23,1Z"/><rect class="cls-2" x="66.23" y="104.93" width="2.22" height="2.22"/><rect class="cls-2" x="66.23" y="107.15" width="2.22" height="2.22"/><rect class="cls-2" x="68.45" y="104.93" width="2.22" height="2.22"/><rect class="cls-2" x="68.45" y="107.15" width="2.22" height="2.22"/><rect class="cls-2" x="84.38" y="94.77" width="2.22" height="10.16"/><rect class="cls-2" x="82.16" y="109.37" width="2.22" height="9.94"/><rect class="cls-2" x="82.16" y="94.77" width="2.22" height="10.16"/><rect class="cls-2" x="84.38" y="109.37" width="2.22" height="9.94"/><path class="cls-2" d="M84.38,123.51a2.23,2.23,0,0,0,2.2-2H82.19A2.21,2.21,0,0,0,84.38,123.51Z"/><path class="cls-2" d="M84.38,91.3a2.22,2.22,0,0,0-2,1.26h4A2.22,2.22,0,0,0,84.38,91.3Z"/><path class="cls-2" d="M86.6,119.31H84.38v0H82.16v2a2,2,0,0,0,0,.24h4.39c0-.08,0-.16,0-.24Z"/><path class="cls-2" d="M82.16,94.77h2.22v0H86.6V93.52a2.19,2.19,0,0,0-.23-1h-4a2.19,2.19,0,0,0-.23,1Z"/><rect class="cls-2" x="84.38" y="107.15" width="2.22" height="2.22"/><rect class="cls-2" x="82.16" y="107.15" width="2.22" height="2.22"/><rect class="cls-2" x="84.38" y="104.93" width="2.22" height="2.22"/><rect class="cls-2" x="82.16" y="104.93" width="2.22" height="2.22"/><rect class="cls-2" x="98.1" y="109.37" width="2.22" height="9.94"/><rect class="cls-2" x="100.32" y="109.37" width="2.22" height="9.94"/><rect class="cls-2" x="100.32" y="94.77" width="2.22" height="10.16"/><rect class="cls-2" x="98.1" y="94.77" width="2.22" height="10.16"/><path class="cls-2" d="M100.32,123.51a2.21,2.21,0,0,0,2.19-2H98.12A2.21,2.21,0,0,0,100.32,123.51Z"/><path class="cls-2" d="M100.32,91.3a2.22,2.22,0,0,0-2,1.26h4A2.23,2.23,0,0,0,100.32,91.3Z"/><path class="cls-2" d="M102.53,119.31h-2.21v0H98.1v2a1.94,1.94,0,0,0,0,.24h4.39a1.94,1.94,0,0,0,0-.24Z"/><path class="cls-2" d="M98.1,94.77h2.22v0h2.21V93.52a2.18,2.18,0,0,0-.22-1h-4a2.19,2.19,0,0,0-.23,1Z"/><rect class="cls-2" x="98.1" y="107.15" width="2.22" height="2.22"/><rect class="cls-2" x="100.32" y="104.93" width="2.22" height="2.22"/><rect class="cls-2" x="100.32" y="107.15" width="2.22" height="2.22"/><rect class="cls-2" x="98.1" y="104.93" width="2.22" height="2.22"/><rect class="cls-2" x="114.03" y="94.77" width="2.22" height="10.16"/><path class="cls-2" d="M116.25,109.37v9.94h.83a12.66,12.66,0,0,0,1.39-.08v-9.86Z"/><rect class="cls-2" x="114.03" y="109.37" width="2.22" height="9.94"/><path class="cls-2" d="M118.47,104.93V94.86a12.64,12.64,0,0,0-1.39-.09h-.83v10.16Z"/><path class="cls-2" d="M118.27,92.62a2.2,2.2,0,0,0-4-.06h2.83A11.51,11.51,0,0,1,118.27,92.62Z"/><path class="cls-2" d="M114.06,121.53a2.2,2.2,0,0,0,4.39-.07c-.45,0-.9.07-1.36.07Z"/><path class="cls-2" d="M118.47,119.23a12.66,12.66,0,0,1-1.39.08h-.83v0H114v2a2,2,0,0,0,0,.24h3c.46,0,.91,0,1.36-.07a1,1,0,0,0,0-.17Z"/><path class="cls-2" d="M114,94.77h2.22v0h.83a12.64,12.64,0,0,1,1.39.09V93.52a2.08,2.08,0,0,0-.2-.9,11.51,11.51,0,0,0-1.18-.06h-2.83a2.19,2.19,0,0,0-.23,1Z"/><rect class="cls-2" x="116.25" y="107.15" width="2.22" height="2.22"/><rect class="cls-2" x="114.03" y="107.15" width="2.22" height="2.22"/><rect class="cls-2" x="116.25" y="104.93" width="2.22" height="2.22"/><rect class="cls-2" x="114.03" y="104.93" width="2.22" height="2.22"/></g></g></svg>