<svg xmlns="http://www.w3.org/2000/svg" viewBox="0 0 165.87 165.87"><defs><style>.cls-1{fill:#a6d9e4;}.cls-2{fill:#343231;}</style></defs><g id="레이어_2" data-name="레이어 2"><g id="Object"><rect class="cls-1" width="165.87" height="165.87" rx="43.52"/><path class="cls-2" d="M45.64,63.07a8.49,8.49,0,1,1,8.73,8.24A8.49,8.49,0,0,1,45.64,63.07Z"/><path class="cls-2" d="M105,61.35a8.48,8.48,0,1,1,8.73,8.24A8.47,8.47,0,0,1,105,61.35Z"/><path class="cls-2" d="M94.67,87.56a18.16,18.16,0,0,1,3.59-2.09c5.7-2.37,8.67,3.93,11.17,6.87,1.84,2.16,3.62,4.89,2.53,8.08-2.06,6-10.27,11.22-15.08,15.42s-9.7,8.6-14.47,13c-3.53,3.25-7.49,7.88-12.31,7.89-2.06,0-3.44-1.45-4.61-2.83q-3.07-3.62-5.95-7.41c-1.88-2.48-1.4-5.33,1.08-8.48a36.43,36.43,0,0,1,5.79-5.43q8.86-7.19,17.35-14.82C87,94.81,90.73,90.42,94.67,87.56Z"/><path class="cls-2" d="M76.1,87.57a18.16,18.16,0,0,0-3.59-2.09c-5.7-2.37-8.67,3.93-11.17,6.87-1.84,2.16-3.63,4.88-2.54,8.07,2.07,6,10.27,11.23,15.08,15.44s9.7,8.59,14.46,13c3.54,3.25,7.5,7.88,12.32,7.89,2.06,0,3.43-1.45,4.6-2.82q3.08-3.63,6-7.42c1.88-2.48,1.4-5.33-1.08-8.48a35.92,35.92,0,0,0-5.79-5.42Q95.49,105.39,87,97.75C83.75,94.83,80,90.44,76.1,87.57Z"/><path class="cls-2" d="M63.43,50.06a1.28,1.28,0,0,0,1.67-.53,14,14,0,0,0,1.77-5.2c.25-2-23.16-8.29-25.56-8.9A150.42,150.42,0,0,0,23,31.6a1.37,1.37,0,0,0-.56,2.66c5.69,1.88,11.6,3.41,17.11,5.52Q51.68,44.45,63.43,50.06Z"/><path class="cls-2" d="M103.49,48.91a1.29,1.29,0,0,1-1.7-.44,13.91,13.91,0,0,1-2.06-5.09c-.37-1.94,22.64-9.61,25-10.36a149,149,0,0,1,18-4.88,1.37,1.37,0,0,1,.72,2.62c-5.57,2.21-11.38,4.08-16.76,6.51Q114.9,42.61,103.49,48.91Z"/></g></g></svg>