<svg xmlns="http://www.w3.org/2000/svg" viewBox="0 0 164.02 358.19"><defs><style>.cls-1{fill:#fcc992;}</style></defs><g id="레이어_2" data-name="레이어 2"><g id="_0" data-name="0"><g id="_1" data-name="1"><path class="cls-1" d="M96.23,20.89c2.3-.7,3.26.42,3.72,1.14a3.09,3.09,0,0,1,.25,2.46,25.59,25.59,0,0,1-1.15,3.09c-1,2.48,0,4.51-2.84,4.51-.89.07-3.11.68-3-.76A54.3,54.3,0,0,1,96.23,20.89Z"/><path class="cls-1" d="M67.79,20.89c-2.3-.7-3.26.42-3.72,1.14a3.09,3.09,0,0,0-.25,2.46A25.59,25.59,0,0,0,65,27.58c1,2.48,0,4.51,2.84,4.51.89.07,3.12.68,3-.76A54.3,54.3,0,0,0,67.79,20.89Z"/><path class="cls-1" d="M155.17,159.4a11.73,11.73,0,0,1,4.29,1.9c2.1,1.29,3.67,1.23,4.41.2,1-1.44-3.66-3.95-5.86-5.66-2.74-2.13-7.47-3.23-9.81-5.12a2.87,2.87,0,0,1-.48-.54,7.5,7.5,0,0,1-1-1.9c-1.44-4-5.21-17-7.64-26.21-2.6-9.88-5-14.87-6.45-17.39-.79-4.28-1.08-9-4.17-19.22.44-18.2-4.3-24-8.54-26.82C112.83,53.91,106.73,55.51,93,47.3l-1.5-12.89H72.61L71.11,47.3c-13.7,8.21-19.79,6.61-26.88,11.34-4.24,2.83-9,8.62-8.55,26.82-3.08,10.21-3.38,14.94-4.16,19.22-1.46,2.52-3.85,7.51-6.45,17.39-.67,2.54-6,22.14-8.09,27.37a3.85,3.85,0,0,1-1.16,1.62c-2.34,1.89-7.07,3-9.81,5.12-2.19,1.71-6.9,4.22-5.86,5.66.74,1,2.32,1.09,4.41-.2a12.11,12.11,0,0,1,4.29-1.9A.86.86,0,0,1,9.73,161c-.66,1.49-2.47,4-4.62,8-.57,1.06-3.73,5.31-4.83,8a1.49,1.49,0,0,0,2.49,1.53,41.44,41.44,0,0,0,5.16-6.91c.36-.68,2.13-3.65,2.64-4.49-.31,1-2,4.4-2.44,5.55-.76,1.92-3.11,7.21-3.89,9.32-.51,1.35,1.8,2.49,2.8,1.17a43.63,43.63,0,0,0,5.16-9.43s1.48-3.32,2.27-5.33c-.45,2.14-.91,3.06-1.38,5.29,0,0-2.39,6.14-2.64,8a1.5,1.5,0,0,0,2.74,1,66.19,66.19,0,0,0,3.62-8c1.26-3.36,2.15-5.92,2.15-5.92s-.41,2.61-.71,4.15c-.16.83-1.52,4.43-1.59,6.84a1.3,1.3,0,0,0,2.05,1c1.64-1.11,3.2-7.38,3.2-7.38.65-2.73,2.21-8.24,2.84-9.83,1.55-3.95.83-6.42.77-8.75a5.43,5.43,0,0,1,.41-1.63c.71-1.83,2.92-5.87,10.45-18.27,7.1-11.7,8.71-21.06,8.71-21.06,3.64-5.29,5.56-11.14,7.47-15.42,4,13.36,3.66,19.67,2.81,32.54-1.88,28.33-9.92,38-8.59,73.7.61,16.53,5.78,33.08,5.63,39-.16,6.17-.51,13-.94,17.14-.7,6.94-1.93,13.88-1.61,20.88.31,6.83,3.07,13.27,5.1,19.76a109.39,109.39,0,0,1,3.52,16.23c1.9,12.44,3.27,16-7.28,31.11-1.14,1.62-3.28,4.34-2.63,6.5.61,2,3.33,2.27,5,2.4,12.65.9,17.89.89,19.13-1.79a5.11,5.11,0,0,0,.11-3.75c-2.94-8.75-1.11-17.76-2.2-26.72-.82-6.75-1.19-7.89.59-17.63,1.12-6.14,2.31-12.28,2.89-18.5,1.72-18.53-3.43-22.78-3.18-33.88.27-11.37,10.75-60.28,9.5-81.57a1.21,1.21,0,0,1,1.19-1.27c.31,0,.63,0,.93,0a1.2,1.2,0,0,1,1.19,1.26C82.35,203.76,93,244,93.21,255.39c.26,11.1-4.89,15.35-3.17,33.88.57,6.22,1.77,12.36,2.89,18.5,1.78,9.74,1.41,10.88.59,17.63-1.09,9,.74,18-2.21,26.72a5.11,5.11,0,0,0,.12,3.75c1.24,2.68,6.47,2.69,19.12,1.79,1.69-.13,4.42-.42,5-2.4.66-2.16-1.49-4.88-2.62-6.5-10.56-15.08-9.18-18.67-7.28-31.11a109.39,109.39,0,0,1,3.52-16.23c2-6.49,4.79-12.93,5.1-19.76.32-7-.91-13.94-1.62-20.88-.42-4.18-.77-11-.93-17.14-.15-5.94,5-22.49,5.63-39,1.33-35.8-4.22-45.46-8.52-73.63-1.64-10.68-1.47-20.18,1.67-33.68a151.7,151.7,0,0,0,8.89,16.7s1.25,9.15,8.36,20.85c7.45,12.27,9.68,16.35,10.43,18.21a5.14,5.14,0,0,1,.27,2.05c-.15,2.13-.6,4.49.8,8,.63,1.59,2.19,7.1,2.85,9.83,0,0,1.56,6.27,3.19,7.38a1.3,1.3,0,0,0,2.06-1c-.08-2.4-1.44-6-1.6-6.84-.3-1.54-.61-3.52-.61-3.52s.78,1.73,2.06,5.3a63.71,63.71,0,0,0,3.61,8,1.5,1.5,0,0,0,2.75-1c-.26-1.89-2.64-8-2.64-8-.48-2.22-1.23-3.65-1.68-5.79.78,2,2.78,5.84,2.78,5.84a45.46,45.46,0,0,0,4.94,9.42c1,1.33,3.31.19,2.8-1.17-.78-2.1-3.13-7.4-3.89-9.31-.41-1-2.76-6.05-2.8-6.17.52.84,2.64,4.43,3,5.11a40.76,40.76,0,0,0,5.16,6.91,1.48,1.48,0,0,0,2.48-1.53c-1.1-2.68-4.26-7.3-4.83-8.36-2.15-4-4-6.13-4.62-7.61A.86.86,0,0,1,155.17,159.4Z"/><path class="cls-1" d="M97.27,10.61C97,8.41,95.38-.08,82.55,0H81.47C68.64-.08,67,8.41,66.75,10.61,65.43,21.36,67.42,25.8,68,30.72c.11.94.45,2.83.8,4.7a11.73,11.73,0,0,0,6.34,8.36,17.17,17.17,0,0,0,6.67,2h.4a17.31,17.31,0,0,0,6.67-2,11.7,11.7,0,0,0,6.34-8.36c.35-1.87.69-3.76.8-4.7C96.61,25.8,98.59,21.36,97.27,10.61Z"/></g></g></g></svg>