<svg xmlns="http://www.w3.org/2000/svg" xmlns:xlink="http://www.w3.org/1999/xlink" viewBox="0 0 34.07 36.3"><defs><style>.cls-1{mask:url(#mask);filter:url(#luminosity-noclip-2);}.cls-2{mix-blend-mode:multiply;fill:url(#linear-gradient);}.cls-3{isolation:isolate;}.cls-4{fill:#c1d7e6;}.cls-5{fill:#a4cad8;}.cls-6{fill:#f3ac17;}.cls-7{fill:#f9c02c;}.cls-8{mask:url(#mask-2);}.cls-9{fill:#d8d8d8;mix-blend-mode:overlay;}.cls-10{fill:#734725;}.cls-11{filter:url(#luminosity-noclip);}</style><filter id="luminosity-noclip" x="4.78" y="-8185.45" width="4.6" height="32766" filterUnits="userSpaceOnUse" color-interpolation-filters="sRGB"><feFlood flood-color="#fff" result="bg"/><feBlend in="SourceGraphic" in2="bg"/></filter><mask id="mask" x="4.78" y="-8185.45" width="4.6" height="32766" maskUnits="userSpaceOnUse"><g class="cls-11"/></mask><linearGradient id="linear-gradient" x1="-213.32" y1="-76.77" x2="-213.32" y2="-60.96" gradientTransform="matrix(-0.99, 0.14, 0.14, 0.99, -194, 122.95)" gradientUnits="userSpaceOnUse"><stop offset="0.21" stop-color="#fff"/><stop offset="0.24" stop-color="#f1f1f1"/><stop offset="0.46" stop-color="#9c9c9c"/><stop offset="0.65" stop-color="#595959"/><stop offset="0.81" stop-color="#292929"/><stop offset="0.93" stop-color="#0b0b0b"/><stop offset="1"/></linearGradient><filter id="luminosity-noclip-2" x="4.78" y="15.77" width="4.6" height="15.98" filterUnits="userSpaceOnUse" color-interpolation-filters="sRGB"><feFlood flood-color="#fff" result="bg"/><feBlend in="SourceGraphic" in2="bg"/></filter><mask id="mask-2" x="4.78" y="15.77" width="4.6" height="15.98" maskUnits="userSpaceOnUse"><g class="cls-1"><path class="cls-2" d="M7,31.75,9.38,31,7.16,15.77a18,18,0,0,1-2.38.72Z"/></g></mask></defs><g class="cls-3"><g id="레이어_2" data-name="레이어 2"><g id="레이어_3" data-name="레이어 3"><path class="cls-4" d="M4.14,31s.58,5.28,12.74,5.28S30.34,31,30.34,31L34.07,2.89S13.17-3.44,0,2.89Z"/><path class="cls-5" d="M0,2.87s18.22-6.45,34.07,0C34.07,2.87,14.51,8.79,0,2.87Z"/><path class="cls-6" d="M28.24,30.57,31,9.76h0c0,1.13-6.22,2.05-12.71,2.05S3,10.93,3,9.8H3L6,30.67s1.67,3.6,11.08,3.43C27.41,33.91,28.24,30.57,28.24,30.57Z"/><path class="cls-7" d="M18.29,7.72C11.81,7.72,3,8.67,3,9.8s8.78,2,15.26,2S31,10.89,31,9.76,24.78,7.72,18.29,7.72Z"/><path class="cls-7" d="M3.48,9.8c0-1.12,8.66-2.06,15-2.08h-.23C11.81,7.72,3,8.67,3,9.8s8.78,2,15.26,2h.23C12.14,11.79,3.48,10.92,3.48,9.8Z"/><g class="cls-8"><path class="cls-9" d="M7.48,30.32h0A1.23,1.23,0,0,0,9.09,29L7.85,20.5a1.21,1.21,0,0,0-.69-.93l-.06,0a1.23,1.23,0,0,0-1.68,1.32l1.24,8.48A1.23,1.23,0,0,0,7.48,30.32Z"/></g><path class="cls-10" d="M18.72.87c-.27-.11-1.15.85-1.1,1.78,0,.24.09.32.16.87a5.35,5.35,0,0,1,0,1.09c-.08.67-.5.84-1,1.56a3.77,3.77,0,0,0-.65,2.62c.18.84.8,1.52,1,1.44s-.33-1.61.49-2.58c.24-.29.33-.19.72-.57a3.24,3.24,0,0,0,1-2c0-.79-.43-.83-.68-1.93C18.5,1.81,19,1,18.72.87Z"/><path class="cls-10" d="M19.66,9.17c.13.1.79-.29.92-.83,0-.14,0-.2.06-.52a3.43,3.43,0,0,1,.16-.63c.16-.36.42-.39.81-.72a2.27,2.27,0,0,0,.81-1.38c0-.5-.19-1-.34-1s-.09,1-.72,1.38c-.18.12-.22,0-.5.2a1.91,1.91,0,0,0-.92,1c-.15.44.1.55.06,1.21S19.53,9.07,19.66,9.17Z"/><path class="cls-10" d="M13.78,9.53c.21,0,.49-.86.2-1.43-.08-.15-.14-.18-.34-.5a3.59,3.59,0,0,1-.33-.68c-.14-.44.08-.66.17-1.25a2.58,2.58,0,0,0-.33-1.82c-.34-.48-.92-.74-1-.62s.65.92.41,1.76c-.08.24-.16.21-.3.55a2.24,2.24,0,0,0-.08,1.55c.2.51.5.41,1,1S13.61,9.54,13.78,9.53Z"/></g></g></g></svg>