<svg xmlns="http://www.w3.org/2000/svg" xmlns:xlink="http://www.w3.org/1999/xlink" viewBox="0 0 34.07 36.3"><defs><style>.cls-1{mask:url(#mask);filter:url(#luminosity-noclip-2);}.cls-2{mix-blend-mode:multiply;fill:url(#linear-gradient);}.cls-3{isolation:isolate;}.cls-4{fill:#c1d7e6;}.cls-5{fill:#a4cad8;}.cls-6{fill:#f3ac17;}.cls-7{fill:#f9c02c;}.cls-8{mask:url(#mask-2);}.cls-9{fill:#d8d8d8;mix-blend-mode:overlay;}.cls-10{fill:#fff;}.cls-11{filter:url(#luminosity-noclip);}</style><filter id="luminosity-noclip" x="4.78" y="-8185.45" width="4.6" height="32766" filterUnits="userSpaceOnUse" color-interpolation-filters="sRGB"><feFlood flood-color="#fff" result="bg"/><feBlend in="SourceGraphic" in2="bg"/></filter><mask id="mask" x="4.78" y="-8185.45" width="4.6" height="32766" maskUnits="userSpaceOnUse"><g class="cls-11"/></mask><linearGradient id="linear-gradient" x1="3.84" y1="-92.56" x2="3.84" y2="-76.75" gradientTransform="matrix(-0.99, 0.14, 0.14, 0.99, 23.16, 107.16)" gradientUnits="userSpaceOnUse"><stop offset="0.21" stop-color="#fff"/><stop offset="0.24" stop-color="#f1f1f1"/><stop offset="0.46" stop-color="#9c9c9c"/><stop offset="0.65" stop-color="#595959"/><stop offset="0.81" stop-color="#292929"/><stop offset="0.93" stop-color="#0b0b0b"/><stop offset="1"/></linearGradient><filter id="luminosity-noclip-2" x="4.78" y="15.77" width="4.6" height="15.98" filterUnits="userSpaceOnUse" color-interpolation-filters="sRGB"><feFlood flood-color="#fff" result="bg"/><feBlend in="SourceGraphic" in2="bg"/></filter><mask id="mask-2" x="4.78" y="15.77" width="4.6" height="15.98" maskUnits="userSpaceOnUse"><g class="cls-1"><path class="cls-2" d="M7,31.75,9.38,31,7.16,15.77a18,18,0,0,1-2.38.72Z"/></g></mask></defs><g class="cls-3"><g id="레이어_2" data-name="레이어 2"><g id="레이어_3" data-name="레이어 3"><path class="cls-4" d="M4.14,32s.58,4.28,12.74,4.28S30.34,32,30.34,32L34.07,2.89S13.17-3.44,0,2.89Z"/><path class="cls-5" d="M0,2.87s18.22-6.45,34.07,0C34.07,2.87,14.51,8.79,0,2.87Z"/><path class="cls-6" d="M28.24,30.57,31,9.76h0c0,1.13-6.22,2.05-12.71,2.05S3,10.93,3,9.8H3L6,30.67s1.67,3.6,11.08,3.43C27.41,33.91,28.24,30.57,28.24,30.57Z"/><path class="cls-7" d="M18.29,7.72C11.81,7.72,3,8.67,3,9.8s8.78,2,15.26,2S31,10.89,31,9.76,24.78,7.72,18.29,7.72Z"/><path class="cls-7" d="M3.48,9.8c0-1.12,8.66-2.06,15-2.08h-.23C11.81,7.72,3,8.67,3,9.8s8.78,2,15.26,2h.23C12.14,11.79,3.48,10.92,3.48,9.8Z"/><g class="cls-8"><path class="cls-9" d="M7.48,30.32h0A1.23,1.23,0,0,0,9.09,29L7.85,20.5a1.21,1.21,0,0,0-.69-.93l-.06,0a1.23,1.23,0,0,0-1.68,1.32l1.24,8.48A1.23,1.23,0,0,0,7.48,30.32Z"/></g><circle class="cls-10" cx="8.71" cy="8.93" r="1.12"/><circle class="cls-10" cx="12.53" cy="9.62" r="1.81"/><circle class="cls-10" cx="19.48" cy="9.93" r="1"/><circle class="cls-10" cx="23.29" cy="8.35" r="1.25"/><circle class="cls-10" cx="26.56" cy="8.35" r="1.05"/><circle class="cls-10" cx="26.42" cy="10.11" r="1.31"/><circle class="cls-10" cx="23.54" cy="11.42" r="0.48"/><circle class="cls-10" cx="22.05" cy="10.05" r="1.78"/><circle class="cls-10" cx="14.79" cy="9.07" r="1"/><circle class="cls-10" cx="16.47" cy="9.06" r="1.56"/><circle class="cls-10" cx="21.74" cy="8.07" r="0.61"/><circle class="cls-10" cx="18.78" cy="8.52" r="0.83"/><circle class="cls-10" cx="16.42" cy="12.33" r="0.38"/><circle class="cls-10" cx="17.13" cy="11.62" r="0.38"/><circle class="cls-10" cx="9.61" cy="10.38" r="1.35"/><circle class="cls-10" cx="10.67" cy="8.52" r="0.94"/><circle class="cls-10" cx="13.79" cy="8.11" r="0.96"/><circle class="cls-10" cx="14.49" cy="10.32" r="1.01"/><circle class="cls-10" cx="15.79" cy="10.81" r="1.01"/><circle class="cls-10" cx="20.27" cy="8.8" r="0.79"/><circle class="cls-10" cx="24.27" cy="10.53" r="1.21"/><circle class="cls-10" cx="25.1" cy="9.27" r="1.08"/><circle class="cls-10" cx="25.19" cy="7.69" r="1.02"/><circle class="cls-10" cx="28.4" cy="10.11" r="1.07"/><circle class="cls-10" cx="22.29" cy="11.62" r="1.09"/><circle class="cls-10" cx="20.12" cy="15.36" r="0.9"/><circle class="cls-10" cx="20.14" cy="17.84" r="0.39"/><circle class="cls-10" cx="21.35" cy="16.8" r="0.4"/><circle class="cls-10" cx="18.36" cy="10.27" r="1.56"/></g></g></g></svg>