<svg xmlns="http://www.w3.org/2000/svg" viewBox="0 0 165.06 359.24"><defs><style>.cls-1{fill:#fcc992;}.cls-2{fill:#e8a96b;}.cls-3{fill:none;stroke:#e8a96b;stroke-miterlimit:10;}</style></defs><g id="레이어_2" data-name="레이어 2"><g id="레이어_3" data-name="레이어 3"><path class="cls-1" d="M97.79,11.13C97.52,8.93,95.9.44,83.07.52H82C69.16.44,67.54,8.93,67.27,11.13c-1.32,10.75.67,15.19,1.25,20.11.11.94.45,2.83.8,4.7a11.7,11.7,0,0,0,6.34,8.36,17.17,17.17,0,0,0,6.67,2h.4a17.31,17.31,0,0,0,6.67-2,11.7,11.7,0,0,0,6.34-8.36c.35-1.87.69-3.76.8-4.7C97.13,26.32,99.11,21.88,97.79,11.13Z"/><path class="cls-2" d="M82.72,46.8h-.41l-.12,0a17.41,17.41,0,0,1-6.76-2A12.27,12.27,0,0,1,68.81,36c-.44-2.33-.71-3.93-.81-4.74-.14-1.2-.37-2.39-.61-3.64a46.75,46.75,0,0,1-.63-16.59C67.17,7.71,69.45-.08,82,0h1.27c12.34,0,14.63,7.73,15,11.07a46.93,46.93,0,0,1-.64,16.59c-.24,1.25-.47,2.44-.61,3.64-.1.83-.37,2.42-.81,4.74a12.25,12.25,0,0,1-6.62,8.72,17.45,17.45,0,0,1-6.77,2l-.11,0Zm-.19-1h.19a16.2,16.2,0,0,0,6.45-1.92,11.23,11.23,0,0,0,6.06-8c.43-2.27.7-3.88.8-4.67.14-1.24.38-2.45.62-3.72a45.31,45.31,0,0,0,.62-16.26C96.9,8.13,94.77,1,83.26,1H81.81c-11.53,0-13.64,7.09-14,10.16a45.3,45.3,0,0,0,.62,16.26c.25,1.27.48,2.48.63,3.72.09.78.36,2.36.79,4.67a11.23,11.23,0,0,0,6.06,8,16.2,16.2,0,0,0,6.45,1.92h.19Z"/><path class="cls-1" d="M96.75,21.41c2.3-.7,3.26.42,3.72,1.14a3.09,3.09,0,0,1,.25,2.46,26.23,26.23,0,0,1-1.15,3.09c-1,2.48,0,4.51-2.84,4.51-.89.07-3.12.68-3-.76A54.3,54.3,0,0,1,96.75,21.41Z"/><path class="cls-2" d="M95,33.32a2,2,0,0,1-1.37-.42,1.28,1.28,0,0,1-.38-1.09,54.82,54.82,0,0,1,3.12-10.7l.1-.15.18-.05c1.91-.58,3.36-.12,4.31,1.36a3.58,3.58,0,0,1,.31,2.87,27.26,27.26,0,0,1-1.17,3.16,8.51,8.51,0,0,0-.53,2.1c-.21,1.35-.42,2.73-2.79,2.73l-.49.07A9.09,9.09,0,0,1,95,33.32ZM97.1,21.85a58.86,58.86,0,0,0-2.87,10c0,.19,0,.24.06.25.27.25,1.27.11,1.8,0l.61-.07c1.51,0,1.59-.51,1.79-1.86a9.6,9.6,0,0,1,.6-2.34,24.84,24.84,0,0,0,1.13-3,2.58,2.58,0,0,0-.19-2A2.32,2.32,0,0,0,97.1,21.85Z"/><path class="cls-1" d="M68.31,21.41c-2.3-.7-3.26.42-3.72,1.14A3.09,3.09,0,0,0,64.34,25a26.23,26.23,0,0,0,1.15,3.09c1.05,2.48,0,4.51,2.84,4.51.89.07,3.12.68,3-.76A54.3,54.3,0,0,0,68.31,21.41Z"/><path class="cls-2" d="M70.11,33.32a9.09,9.09,0,0,1-1.29-.12l-.53-.07c-2.33,0-2.54-1.39-2.75-2.73A8.51,8.51,0,0,0,65,28.3a26.6,26.6,0,0,1-1.17-3.16,3.58,3.58,0,0,1,.31-2.87c.95-1.48,2.4-1.94,4.31-1.36l.18.05.1.15a54.72,54.72,0,0,1,3.12,10.71,1.27,1.27,0,0,1-.38,1.08A2,2,0,0,1,70.11,33.32ZM67,21.71A2.15,2.15,0,0,0,65,22.83a2.58,2.58,0,0,0-.19,2,28,28,0,0,0,1.13,3,9.6,9.6,0,0,1,.6,2.34c.2,1.35.28,1.85,1.76,1.85l.64.08c.53.08,1.53.22,1.8,0,0,0,.07-.06.06-.25a58.86,58.86,0,0,0-2.87-10A3.79,3.79,0,0,0,67,21.71Z"/><path class="cls-1" d="M155.69,159.92a11.73,11.73,0,0,1,4.29,1.9c2.1,1.29,3.67,1.23,4.41.2,1-1.44-3.66-4-5.86-5.66-2.74-2.13-7.47-3.23-9.81-5.12a2.87,2.87,0,0,1-.48-.54,7.5,7.5,0,0,1-1-1.9c-1.44-4-5.21-17-7.64-26.21-2.6-9.88-5-14.87-6.45-17.39-.79-4.28-1.08-9-4.17-19.22.44-18.2-4.3-24-8.54-26.82-7.09-4.73-13.19-3.13-26.88-11.34l-1.5-12.89H73.12L71.63,47.82C57.93,56,51.84,54.43,44.75,59.16,40.51,62,35.77,67.78,36.2,86,33.11,96.19,32.82,100.92,32,105.2c-1.46,2.52-3.85,7.51-6.45,17.39-.67,2.54-6,22.14-8.09,27.37a3.94,3.94,0,0,1-1.16,1.62c-2.34,1.89-7.07,3-9.81,5.12-2.19,1.71-6.9,4.22-5.86,5.66.74,1,2.32,1.09,4.41-.2a12.11,12.11,0,0,1,4.29-1.9.86.86,0,0,1,.88,1.22c-.66,1.49-2.47,4-4.62,8-.57,1.06-3.73,5.31-4.83,8A1.49,1.49,0,0,0,3.29,179a41.44,41.44,0,0,0,5.16-6.91c.36-.68,2.13-3.65,2.64-4.49-.31,1-2,4.4-2.44,5.55-.76,1.92-3.11,7.21-3.89,9.32-.51,1.35,1.8,2.49,2.8,1.17a43.63,43.63,0,0,0,5.16-9.43s1.48-3.32,2.27-5.33c-.45,2.14-.91,3.06-1.38,5.29,0,0-2.39,6.14-2.65,8a1.51,1.51,0,0,0,2.75,1,67.79,67.79,0,0,0,3.62-8c1.26-3.36,2.15-5.92,2.15-5.92s-.41,2.61-.71,4.15c-.16.83-1.52,4.43-1.59,6.84a1.3,1.3,0,0,0,2.05,1c1.64-1.11,3.2-7.38,3.2-7.38.65-2.73,2.21-8.24,2.84-9.83,1.55-3.95.83-6.42.77-8.75a5.66,5.66,0,0,1,.4-1.63c.72-1.83,2.93-5.87,10.46-18.27,7.1-11.7,8.71-21.06,8.71-21.06,3.64-5.29,5.56-11.14,7.47-15.42,4,13.36,3.66,19.67,2.81,32.54-1.88,28.33-9.92,38-8.59,73.7.61,16.53,5.78,33.08,5.63,39-.16,6.17-.51,13-.94,17.14-.7,6.94-1.94,13.88-1.61,20.88.31,6.83,3.07,13.27,5.1,19.76A109.39,109.39,0,0,1,59,318.17c1.9,12.44,3.27,16-7.28,31.11-1.14,1.62-3.28,4.34-2.63,6.5.61,2,3.33,2.27,5,2.4,12.65.9,17.89.89,19.13-1.79a5.11,5.11,0,0,0,.11-3.75c-2.94-8.75-1.11-17.76-2.2-26.72-.82-6.75-1.19-7.89.59-17.63,1.12-6.14,2.31-12.28,2.89-18.5,1.72-18.53-3.43-22.78-3.18-33.88.27-11.37,10.75-60.28,9.5-81.57a1.21,1.21,0,0,1,1.19-1.27h.93a1.2,1.2,0,0,1,1.19,1.26c-1.39,29.95,9.21,70.14,9.47,81.58.26,11.1-4.89,15.35-3.17,33.88.57,6.22,1.77,12.36,2.89,18.5,1.78,9.74,1.41,10.88.59,17.63-1.09,9,.74,18-2.21,26.72a5.11,5.11,0,0,0,.12,3.75c1.24,2.68,6.47,2.69,19.12,1.79,1.69-.13,4.42-.42,5-2.4.66-2.16-1.49-4.88-2.62-6.5-10.56-15.08-9.18-18.67-7.28-31.11a109.39,109.39,0,0,1,3.52-16.23c2-6.49,4.79-12.93,5.1-19.76.32-7-.91-13.94-1.62-20.88-.42-4.18-.77-11-.93-17.14-.15-5.94,5-22.49,5.63-39,1.33-35.8-4.22-45.46-8.52-73.63-1.64-10.68-1.47-20.18,1.67-33.68a151.7,151.7,0,0,0,8.89,16.7s1.25,9.15,8.36,20.85c7.45,12.27,9.68,16.35,10.43,18.21a5.14,5.14,0,0,1,.27,2c-.15,2.13-.6,4.49.8,8.05.63,1.59,2.19,7.1,2.85,9.83,0,0,1.56,6.27,3.19,7.38a1.3,1.3,0,0,0,2.06-1c-.08-2.4-1.44-6-1.6-6.84-.3-1.54-.61-3.52-.61-3.52s.78,1.73,2.06,5.3a63.71,63.71,0,0,0,3.61,8,1.5,1.5,0,0,0,2.75-1c-.26-1.89-2.64-8-2.64-8-.48-2.22-1.23-3.65-1.68-5.79.78,2,2.77,5.84,2.77,5.84a45.86,45.86,0,0,0,4.95,9.42c1,1.33,3.31.19,2.8-1.17-.78-2.1-3.13-7.4-3.89-9.31-.41-1-2.76-6-2.8-6.17.52.84,2.64,4.43,3,5.11a40.76,40.76,0,0,0,5.16,6.91,1.48,1.48,0,0,0,2.48-1.53c-1.1-2.68-4.26-7.3-4.83-8.36-2.15-4-4-6.13-4.62-7.61A.86.86,0,0,1,155.69,159.92Z"/><path class="cls-2" d="M65.12,359.24c-2.86,0-6.5-.22-11-.55-1.42-.1-4.75-.34-5.48-2.76-.68-2.22,1.16-4.8,2.38-6.51l.31-.44c9.81-14,9.19-18,7.53-28.61l-.33-2.12A107.37,107.37,0,0,0,55,302.1c-.45-1.45-.94-2.9-1.43-4.35-1.7-5-3.45-10.17-3.69-15.55a93.67,93.67,0,0,1,1-15.66c.22-1.76.43-3.53.61-5.29.4-4,.76-10.68.93-17.1.06-2.4-.78-6.62-1.84-12-1.53-7.71-3.43-17.3-3.79-27C46,183.85,48.47,172,51.1,159.52a185.87,185.87,0,0,0,4.27-28.11c.8-12.17,1.22-18.48-2.38-31-.28.67-.57,1.36-.86,2.08a62.83,62.83,0,0,1-6,12,69.17,69.17,0,0,1-8.75,21.13c-8.14,13.4-9.82,16.66-10.42,18.19a5,5,0,0,0-.36,1.38l0,.14c0,.39.06.87.11,1.37a14.69,14.69,0,0,1-.91,7.49c-.6,1.54-2.15,7-2.82,9.77-.16.66-1.66,6.49-3.41,7.68a2,2,0,0,1-2,.07,1.65,1.65,0,0,1-.85-1.55,16.1,16.1,0,0,1,.6-3.47,51.76,51.76,0,0,1-3.12,6.71,2,2,0,0,1-2.41.77,2,2,0,0,1-1.28-2.1,29.73,29.73,0,0,1,1.32-4.48A44,44,0,0,1,8,183.93a2.12,2.12,0,0,1-2.76.5,1.77,1.77,0,0,1-1-2.17c.47-1.26,1.5-3.66,2.41-5.78l.82-1.93a45,45,0,0,1-3.84,4.79,2.06,2.06,0,0,1-2.62.3,1.87,1.87,0,0,1-.72-2.38A43.08,43.08,0,0,1,4.05,171c.51-.77,1-1.43,1.12-1.74,1.16-2.17,2.21-3.88,3.05-5.25a27.61,27.61,0,0,0,1.56-2.7.35.35,0,0,0,0-.36.32.32,0,0,0-.3-.13,11.33,11.33,0,0,0-4.09,1.82c-2.23,1.38-4.14,1.4-5.1.07a1.32,1.32,0,0,1-.23-1c.21-1.19,1.84-2.38,4.31-4,.7-.48,1.37-.93,1.88-1.33a24.14,24.14,0,0,1,5.28-2.76A21.1,21.1,0,0,0,16,151.18a3.53,3.53,0,0,0,1-1.42c2-5,7.15-23.81,8.06-27.3,2-7.61,4.18-13.47,6.47-17.44.16-.93.31-1.87.46-2.89A105.19,105.19,0,0,1,35.68,85.9c-.43-18.6,4.47-24.29,8.78-27.17,3.2-2.14,6.22-3,9.72-4a64.93,64.93,0,0,0,17-7.2l1.47-12.63a.52.52,0,0,1,.52-.46H92.06a.52.52,0,0,1,.52.46L94,47.5a65.11,65.11,0,0,0,17,7.2c3.49,1,6.51,1.89,9.72,4,4.31,2.88,9.2,8.57,8.77,27.17a104,104,0,0,1,3.67,16.23c.16,1,.3,2,.47,2.89,2.29,4,4.46,9.84,6.46,17.44,2.54,9.63,6.24,22.35,7.63,26.17a7.13,7.13,0,0,0,.92,1.76,2.67,2.67,0,0,0,.39.44,20.66,20.66,0,0,0,4.53,2.35,24.6,24.6,0,0,1,5.28,2.77c.51.4,1.18.85,1.88,1.33,2.47,1.67,4.1,2.86,4.31,4.05a1.28,1.28,0,0,1-.22,1c-1,1.34-2.88,1.32-5.11-.06a11.7,11.7,0,0,0-4.08-1.83.34.34,0,0,0-.31.13.4.4,0,0,0,0,.37,20.62,20.62,0,0,0,1.43,2.34,60.06,60.06,0,0,1,3.18,5.23c.16.3.55.91,1,1.69a54.32,54.32,0,0,1,3.81,6.72,1.88,1.88,0,0,1-.72,2.39,2.06,2.06,0,0,1-2.62-.3,45,45,0,0,1-3.84-4.79c.25.59.54,1.25.83,1.95.91,2.11,1.93,4.5,2.4,5.76a1.75,1.75,0,0,1-.95,2.17,2.12,2.12,0,0,1-2.75-.5,44.89,44.89,0,0,1-4.58-8.48,47,47,0,0,1,2.1,6.65,1.92,1.92,0,0,1-1.27,2.09,2,2,0,0,1-2.42-.76,51.82,51.82,0,0,1-3.1-6.65,16.13,16.13,0,0,1,.58,3.41,1.64,1.64,0,0,1-.85,1.55,2,2,0,0,1-2-.07c-1.75-1.19-3.24-7-3.41-7.68-.67-2.79-2.22-8.23-2.82-9.77a14.66,14.66,0,0,1-.9-7.49l.06-.79a4.37,4.37,0,0,0-.24-1.83c-.62-1.54-2.31-4.81-10.39-18.12-6.64-11-8.23-19.81-8.41-20.93a153.9,153.9,0,0,1-8.23-15.28c-2.63,11.93-3,21-1.32,32,1.25,8.2,2.59,14.71,3.88,21,3.12,15.26,5.59,27.31,4.65,52.73-.36,9.73-2.26,19.32-3.79,27-1.06,5.34-1.9,9.56-1.84,12,.16,6.42.53,13.14.93,17.1.18,1.76.39,3.53.61,5.29a95.84,95.84,0,0,1,1,15.66c-.25,5.38-2,10.55-3.69,15.55-.49,1.45-1,2.9-1.43,4.35a109,109,0,0,0-3.51,16.15l-.33,2.12C104.71,331,104.09,335,113.9,349l.31.44c1.21,1.71,3.06,4.29,2.38,6.51-.73,2.42-4.06,2.66-5.48,2.76-12.56.9-18.21,1-19.63-2.09a5.58,5.58,0,0,1-.14-4.13c1.8-5.35,1.79-11,1.78-16.36a84.27,84.27,0,0,1,.4-10.25l.17-1.38c.7-5.62.89-7.14-.75-16.1l-.34-1.83c-1-5.45-2-11.09-2.56-16.71a61.35,61.35,0,0,1,1.64-22.48,42.17,42.17,0,0,0,1.53-11.44c-.09-3.84-1.35-11-2.95-20-3.14-17.64-7.44-41.8-6.52-61.65a.68.68,0,0,0-.19-.5.67.67,0,0,0-.49-.21h-.91a.68.68,0,0,0-.5.22.66.66,0,0,0-.18.5c.79,13.55-3.07,37.79-6.18,57.27-1.73,10.84-3.22,20.21-3.32,24.34a42.55,42.55,0,0,0,1.54,11.44,61.35,61.35,0,0,1,1.64,22.48c-.52,5.61-1.56,11.24-2.56,16.69l-.34,1.85c-1.64,9-1.45,10.48-.75,16.1l.17,1.38a86.34,86.34,0,0,1,.4,10.25c0,5.41,0,11,1.78,16.36a5.58,5.58,0,0,1-.14,4.13C72.8,358.56,70.17,359.24,65.12,359.24Zm-12-260.86a.51.51,0,0,1,.5.37c4.09,13.61,3.67,20,2.83,32.73a188,188,0,0,1-4.29,28.25c-2.62,12.45-5.09,24.21-4.3,45.4.36,9.64,2.25,19.19,3.77,26.85,1.07,5.41,1.92,9.68,1.86,12.19-.17,6.45-.53,13.19-.94,17.19-.18,1.76-.39,3.53-.61,5.3a94.2,94.2,0,0,0-1,15.49c.24,5.23,2,10.33,3.63,15.27.49,1.45,1,2.91,1.44,4.37a108.05,108.05,0,0,1,3.55,16.3l.32,2.12c1.71,10.92,2.35,15-7.7,29.37l-.31.44c-1.1,1.55-2.76,3.88-2.24,5.61.47,1.53,2.57,1.88,4.56,2,12.23.87,17.53.86,18.62-1.49a4.54,4.54,0,0,0,.09-3.37C71,347.29,71,341.61,71,336.11a84.1,84.1,0,0,0-.4-10.13l-.17-1.37c-.69-5.6-.9-7.3.77-16.42l.34-1.85c1-5.42,2-11,2.54-16.6a60.31,60.31,0,0,0-1.62-22.14,43.79,43.79,0,0,1-1.56-11.71c.1-4.2,1.6-13.59,3.33-24.47,3.1-19.43,7-43.61,6.17-57a1.73,1.73,0,0,1,1.7-1.82c.31,0,.64,0,1,0a1.69,1.69,0,0,1,1.23.54,1.72,1.72,0,0,1,.47,1.26c-.92,19.73,3.37,43.82,6.5,61.42,1.61,9,2.88,16.2,3,20.12a43,43,0,0,1-1.56,11.71,60.53,60.53,0,0,0-1.62,22.14c.52,5.58,1.56,11.19,2.56,16.62l.33,1.83c1.67,9.12,1.46,10.82.76,16.42L94.55,326a84.08,84.08,0,0,0-.39,10.13c0,5.5,0,11.18-1.83,16.69a4.54,4.54,0,0,0,.09,3.37c1.09,2.35,6.38,2.37,18.62,1.49,2-.15,4.09-.5,4.56-2,.52-1.73-1.14-4.06-2.24-5.61l-.32-.44c-10.05-14.36-9.41-18.45-7.7-29.37l.33-2.12a112.16,112.16,0,0,1,3.54-16.3c.46-1.46,1-2.92,1.44-4.37,1.67-4.94,3.4-10,3.64-15.27a92.93,92.93,0,0,0-1-15.48c-.21-1.78-.42-3.54-.6-5.31-.41-4-.78-10.74-.94-17.19-.06-2.51.78-6.78,1.86-12.18,1.52-7.67,3.41-17.22,3.77-26.86.94-25.31-1.52-37.3-4.63-52.49-1.29-6.3-2.63-12.83-3.89-21-1.77-11.57-1.3-21.07,1.68-33.88a.55.55,0,0,1,.46-.4.54.54,0,0,1,.52.31,155.21,155.21,0,0,0,8.85,16.63.54.54,0,0,1,.08.21c0,.09,1.33,9.19,8.29,20.65,7.67,12.63,9.73,16.44,10.47,18.28a5.83,5.83,0,0,1,.31,2.29c0,.26,0,.53-.07.8a13.79,13.79,0,0,0,.84,7c.61,1.57,2.18,7.08,2.86,9.9.59,2.34,1.91,6.34,3,7.06a1,1,0,0,0,.93,0,.63.63,0,0,0,.32-.61,24.1,24.1,0,0,0-1.23-5.48c-.18-.6-.31-1-.36-1.28-.3-1.53-.61-3.53-.61-3.54a.51.51,0,0,1,.36-.58.5.5,0,0,1,.62.28c0,.07.81,1.8,2.08,5.34a64.25,64.25,0,0,0,3.55,7.9,1,1,0,0,0,1.19.36.9.9,0,0,0,.61-1c-.24-1.81-2.59-7.85-2.61-7.91a24.49,24.49,0,0,0-.86-3,24.89,24.89,0,0,1-.84-2.91.52.52,0,0,1,.36-.61.53.53,0,0,1,.63.31c.77,2,2.74,5.75,2.76,5.78a45.06,45.06,0,0,0,4.9,9.36,1.09,1.09,0,0,0,1.42.21c.12-.06.66-.39.48-.89-.46-1.23-1.48-3.61-2.38-5.71-.63-1.46-1.2-2.81-1.51-3.59s-1.35-3-2.06-4.55-.73-1.59-.75-1.66a.51.51,0,0,1,.28-.62.52.52,0,0,1,.66.2c.54.88,2.65,4.46,3,5.13a41.46,41.46,0,0,0,5.08,6.81,1,1,0,0,0,1.31.13.83.83,0,0,0,.32-1.11,53.48,53.48,0,0,0-3.73-6.56c-.5-.8-.9-1.43-1.08-1.76a57.89,57.89,0,0,0-3.13-5.15,17.73,17.73,0,0,1-1.5-2.49,1.4,1.4,0,0,1,.15-1.41,1.37,1.37,0,0,1,1.27-.54,12.82,12.82,0,0,1,4.5,2c1.71,1.05,3.1,1.18,3.71.33a.25.25,0,0,0,.05-.2c-.15-.85-2.3-2.31-3.87-3.37-.72-.49-1.4-.95-1.94-1.37a23.48,23.48,0,0,0-5.05-2.63,21.2,21.2,0,0,1-4.77-2.5,3,3,0,0,1-.57-.63,7.66,7.66,0,0,1-1.07-2c-1.39-3.84-5.11-16.6-7.65-26.25-2-7.57-4.15-13.38-6.4-17.27a.87.87,0,0,1-.07-.17c-.17-1-.32-1.94-.48-3a104.56,104.56,0,0,0-3.67-16.16,1,1,0,0,1,0-.17c.44-18.37-4.53-23.84-8.31-26.37-3.07-2.05-6-2.9-9.43-3.89a66,66,0,0,1-17.43-7.43.54.54,0,0,1-.25-.39L91.6,35.45h-18L72.15,47.88a.54.54,0,0,1-.25.39A66,66,0,0,1,54.47,55.7c-3.41,1-6.36,1.84-9.44,3.89-3.77,2.53-8.74,8-8.31,26.37a.33.33,0,0,1,0,.17A104.2,104.2,0,0,0,33,102.29c-.16,1.06-.31,2-.49,3a.49.49,0,0,1-.06.17c-2.26,3.89-4.41,9.7-6.4,17.27-.92,3.5-6,22.36-8.11,27.43A4.47,4.47,0,0,1,16.67,152a21,21,0,0,1-4.77,2.49,24.19,24.19,0,0,0-5.05,2.63c-.54.42-1.22.88-1.94,1.37-1.57,1.07-3.72,2.53-3.86,3.37a.24.24,0,0,0,0,.21c.61.84,2,.72,3.72-.34a12.54,12.54,0,0,1,4.49-2,1.33,1.33,0,0,1,1.27.54,1.42,1.42,0,0,1,.16,1.41,31.75,31.75,0,0,1-1.62,2.82c-.84,1.36-1.88,3-3,5.19-.19.35-.63,1-1.18,1.83a43.43,43.43,0,0,0-3.63,6.11.85.85,0,0,0,.32,1.12,1,1,0,0,0,1.31-.14A40.9,40.9,0,0,0,8,171.82c.37-.68,2.14-3.66,2.66-4.51a.52.52,0,0,1,.66-.2.51.51,0,0,1,.28.62c-.2.66-.86,2.1-1.51,3.5-.4.85-.76,1.65-.94,2.1-.31.77-.89,2.11-1.51,3.56-.9,2.11-1.92,4.5-2.38,5.74-.19.5.36.83.47.89a1.09,1.09,0,0,0,1.42-.22,42.41,42.41,0,0,0,5.09-9.3c0-.06,1.5-3.36,2.27-5.33a.52.52,0,0,1,1,.3c-.23,1.09-.47,1.88-.7,2.65s-.45,1.54-.69,2.63c0,.14-2.39,6.19-2.63,8a.89.89,0,0,0,.61,1,1,1,0,0,0,1.19-.36,67.46,67.46,0,0,0,3.56-7.9c1.25-3.32,2.14-5.89,2.15-5.91a.5.5,0,0,1,.61-.34.53.53,0,0,1,.39.59s-.41,2.63-.71,4.17c0,.25-.18.68-.36,1.27a24.1,24.1,0,0,0-1.22,5.48.6.6,0,0,0,.31.61,1,1,0,0,0,.93,0c1.07-.73,2.4-4.72,3-7.07.68-2.81,2.25-8.32,2.86-9.9a13.79,13.79,0,0,0,.84-7c-.05-.52-.09-1-.1-1.52l0-.22a6.07,6.07,0,0,1,.42-1.62c.71-1.82,2.77-5.63,10.5-18.35,7-11.49,8.62-20.79,8.64-20.88a.49.49,0,0,1,.08-.21,62.38,62.38,0,0,0,6-11.91c.49-1.22,1-2.37,1.44-3.43A.52.52,0,0,1,53.08,98.38Z"/><path class="cls-2" d="M113.18,91.23s-.17.42-.37,1.07-.44,1.54-.64,2.43c-.43,1.78-.7,3.58-.7,3.58a.53.53,0,0,1-.6.44.52.52,0,0,1-.43-.59s.41-1.86,1-3.64c.27-.89.57-1.77.82-2.42s.45-1.08.45-1.08a.27.27,0,0,1,.37-.14A.28.28,0,0,1,113.18,91.23Z"/><path class="cls-2" d="M51.25,91.72s.2.41.45,1.06.56,1.5.83,2.37c.56,1.73,1,3.49,1,3.49a.52.52,0,1,1-1,.27s-.35-1.8-.78-3.55c-.21-.87-.45-1.74-.66-2.37s-.37-1.06-.37-1.06a.27.27,0,0,1,.15-.35.26.26,0,0,1,.35.13Z"/><rect class="cls-1" x="71.87" y="33.2" width="21.44" height="6.99"/><rect class="cls-1" x="66.83" y="19.97" width="31.69" height="13.35" rx="4.13"/><path class="cls-3" d="M113.17,179.18S95,190,83.78,173.21"/><path class="cls-3" d="M52.09,177.17S68.69,189.58,80.9,174"/><line class="cls-3" x1="82.53" y1="173.21" x2="82.53" y2="163.89"/><path class="cls-3" d="M74.24,70.4S71.74,100,58.09,98.14"/><path class="cls-3" d="M90.79,70.4s2.5,29.56,16.15,27.74"/></g></g></svg>