<svg xmlns="http://www.w3.org/2000/svg" xmlns:xlink="http://www.w3.org/1999/xlink" viewBox="0 0 30.07 34.42"><defs><style>.cls-1{mask:url(#mask);filter:url(#luminosity-noclip-2);}.cls-2,.cls-6,.cls-8{mix-blend-mode:multiply;}.cls-2{fill:url(#linear-gradient);}.cls-3{isolation:isolate;}.cls-4{fill:#c1d7e6;}.cls-5,.cls-6{fill:#f3ac17;}.cls-6{opacity:0.6;}.cls-7{fill:#f9c02c;}.cls-8{fill:#ccc;opacity:0.3;}.cls-9{mask:url(#mask-2);}.cls-10{fill:#d8d8d8;mix-blend-mode:overlay;}.cls-11{fill:#734725;}.cls-12{filter:url(#luminosity-noclip);}</style><filter id="luminosity-noclip" x="3.89" y="-8238.25" width="2.92" height="32766" filterUnits="userSpaceOnUse" color-interpolation-filters="sRGB"><feFlood flood-color="#fff" result="bg"/><feBlend in="SourceGraphic" in2="bg"/></filter><mask id="mask" x="3.89" y="-8238.25" width="2.92" height="32766" maskUnits="userSpaceOnUse"><g class="cls-12"/></mask><linearGradient id="linear-gradient" x1="5.35" y1="11.6" x2="5.35" y2="30.36" gradientTransform="matrix(1, 0, 0, -1, 0, 45.6)" gradientUnits="userSpaceOnUse"><stop offset="0.21" stop-color="#fff"/><stop offset="0.24" stop-color="#f1f1f1"/><stop offset="0.46" stop-color="#9c9c9c"/><stop offset="0.65" stop-color="#595959"/><stop offset="0.81" stop-color="#292929"/><stop offset="0.93" stop-color="#0b0b0b"/><stop offset="1"/></linearGradient><filter id="luminosity-noclip-2" x="3.89" y="15.48" width="2.92" height="18.75" filterUnits="userSpaceOnUse" color-interpolation-filters="sRGB"><feFlood flood-color="#fff" result="bg"/><feBlend in="SourceGraphic" in2="bg"/></filter><mask id="mask-2" x="3.89" y="15.48" width="2.92" height="18.75" maskUnits="userSpaceOnUse"><g class="cls-1"><path class="cls-2" d="M6.81,15.48,3.89,16V34.23a21.89,21.89,0,0,1,2.92-.45Z"/></g></mask></defs><g class="cls-3"><g id="레이어_2" data-name="레이어 2"><g id="레이어_3" data-name="레이어 3"><path class="cls-4" d="M1.14,30.14s1.58,4.28,13.74,4.28,14.46-4.28,14.46-4.28L30.07,7S13.17.69,0,7Z"/><path class="cls-5" d="M27,29.12V8.89h0c0,1.13-5.25,2-11.74,2S3.55,10,3.55,8.89h0V29.12s0,2.9,11.11,2.9S27,29.12,27,29.12Z"/><path class="cls-6" d="M19.19,31.88A16.18,16.18,0,0,0,27,29.12V8.89h0c0,.89-3.27,1.65-7.84,1.93V31.88Z"/><path class="cls-7" d="M15.29,6.85c-6.48,0-11.74.91-11.74,2s5.26,2,11.74,2S27,10,27,8.89,21.78,6.85,15.29,6.85Z"/><path class="cls-7" d="M4,8.89c0-1.12,5.14-2,11.52-2h-.23c-6.48,0-11.74.91-11.74,2s5.26,2,11.74,2h.23C9.14,10.91,4,10,4,8.89Z"/><path class="cls-8" d="M25.6,29.72c0,1.25-4.44,3.11-10.33,3.11s-11-1.86-11-3.11S9,27.46,14.93,27.46,25.6,28.47,25.6,29.72Z"/><path class="cls-8" d="M23.06,30.46c0,.95-3.38,2.37-7.87,2.37s-8.38-1.42-8.38-2.37,3.64-1.72,8.12-1.72S23.06,29.51,23.06,30.46Z"/><g class="cls-9"><path class="cls-10" d="M6.81,17.48,3.89,16V29.23a8.33,8.33,0,0,0,2.92,1.55Z"/></g><path class="cls-11" d="M16.88,0c-.27-.11-1.15.85-1.09,1.78,0,.25.08.32.15.87A5.42,5.42,0,0,1,16,3.76c-.08.66-.5.83-1,1.55a3.79,3.79,0,0,0-.65,2.62c.18.84.8,1.52,1,1.44s-.33-1.61.49-2.58c.24-.29.33-.19.72-.57a3.24,3.24,0,0,0,1-2c0-.8-.43-.84-.68-1.94C16.66,1,17.13.1,16.88,0Z"/><path class="cls-11" d="M17.82,8.31c.13.1.79-.29.92-.83,0-.14,0-.2.06-.52A3.88,3.88,0,0,1,19,6.33c.16-.36.42-.39.81-.72a2.2,2.2,0,0,0,.81-1.38c0-.5-.19-1-.34-1s-.09,1-.71,1.38c-.19.13-.22.06-.51.2a2,2,0,0,0-.92,1c-.15.45.1.55.06,1.21S17.69,8.21,17.82,8.31Z"/><path class="cls-11" d="M12,8.67c.2,0,.48-.85.19-1.42-.08-.16-.14-.18-.34-.51a3.59,3.59,0,0,1-.33-.68c-.14-.44.08-.66.17-1.24A2.6,2.6,0,0,0,11.31,3c-.34-.48-.92-.74-1-.62s.65.92.41,1.76c-.08.25-.16.21-.3.56a2.23,2.23,0,0,0-.08,1.55c.2.5.5.4,1,1S11.77,8.68,12,8.67Z"/></g></g></g></svg>