<svg xmlns="http://www.w3.org/2000/svg" xmlns:xlink="http://www.w3.org/1999/xlink" viewBox="0 0 34.07 36.3"><defs><style>.cls-1{mask:url(#mask);filter:url(#luminosity-noclip-2);}.cls-2{mix-blend-mode:multiply;fill:url(#linear-gradient);}.cls-3{isolation:isolate;}.cls-4{fill:#c1d7e6;}.cls-5{fill:#a4cad8;}.cls-6{fill:#c04622;}.cls-7{fill:#c75b33;}.cls-8{fill:#f9c02c;}.cls-9{mask:url(#mask-2);}.cls-10{fill:#d8d8d8;mix-blend-mode:overlay;}.cls-11{filter:url(#luminosity-noclip);}</style><filter id="luminosity-noclip" x="4.78" y="-8185.45" width="4.6" height="32766" filterUnits="userSpaceOnUse" color-interpolation-filters="sRGB"><feFlood flood-color="#fff" result="bg"/><feBlend in="SourceGraphic" in2="bg"/></filter><mask id="mask" x="4.78" y="-8185.45" width="4.6" height="32766" maskUnits="userSpaceOnUse"><g class="cls-11"/></mask><linearGradient id="linear-gradient" x1="-67.59" y1="-87.36" x2="-67.59" y2="-71.56" gradientTransform="matrix(-0.99, 0.14, 0.14, 0.99, -48.28, 112.36)" gradientUnits="userSpaceOnUse"><stop offset="0.21" stop-color="#fff"/><stop offset="0.24" stop-color="#f1f1f1"/><stop offset="0.46" stop-color="#9c9c9c"/><stop offset="0.65" stop-color="#595959"/><stop offset="0.81" stop-color="#292929"/><stop offset="0.93" stop-color="#0b0b0b"/><stop offset="1"/></linearGradient><filter id="luminosity-noclip-2" x="4.78" y="15.77" width="4.6" height="15.98" filterUnits="userSpaceOnUse" color-interpolation-filters="sRGB"><feFlood flood-color="#fff" result="bg"/><feBlend in="SourceGraphic" in2="bg"/></filter><mask id="mask-2" x="4.78" y="15.77" width="4.6" height="15.98" maskUnits="userSpaceOnUse"><g class="cls-1"><path class="cls-2" d="M7,31.75,9.38,31,7.16,15.77a18,18,0,0,1-2.38.72Z"/></g></mask></defs><g class="cls-3"><g id="레이어_2" data-name="레이어 2"><g id="레이어_3" data-name="레이어 3"><path class="cls-4" d="M4.14,31s.58,5.28,12.74,5.28S30.34,31,30.34,31L34.07,2.89S13.17-3.44,0,2.89Z"/><path class="cls-5" d="M0,2.87s18.22-6.45,34.07,0C34.07,2.87,14.51,8.79,0,2.87Z"/><path class="cls-6" d="M28.24,30.57,31,9.76h0c0,1.13-6.22,2.05-12.71,2.05S3,10.93,3,9.8H3L6,30.67s1.67,3.6,11.08,3.43C27.41,33.91,28.24,30.57,28.24,30.57Z"/><path class="cls-7" d="M18.29,7.72C11.81,7.72,3,8.67,3,9.8s8.78,2,15.26,2S31,10.89,31,9.76,24.78,7.72,18.29,7.72Z"/><path class="cls-8" d="M3.48,9.8c0-1.12,8.66-2.06,15-2.08h-.23C11.81,7.72,3,8.67,3,9.8s8.78,2,15.26,2h.23C12.14,11.79,3.48,10.92,3.48,9.8Z"/><g class="cls-9"><path class="cls-10" d="M7.48,30.32h0A1.23,1.23,0,0,0,9.09,29L7.85,20.5a1.21,1.21,0,0,0-.69-.93l-.06,0a1.23,1.23,0,0,0-1.68,1.32l1.24,8.48A1.23,1.23,0,0,0,7.48,30.32Z"/></g></g></g></g></svg>