<svg xmlns="http://www.w3.org/2000/svg" xmlns:xlink="http://www.w3.org/1999/xlink" viewBox="0 0 30.07 30.22"><defs><style>.cls-1{mask:url(#mask);filter:url(#luminosity-noclip-2);}.cls-2,.cls-6,.cls-8{mix-blend-mode:multiply;}.cls-2{fill:url(#linear-gradient);}.cls-3{isolation:isolate;}.cls-4{fill:#c1d7e6;}.cls-5,.cls-6{fill:#f3ac17;}.cls-6{opacity:0.6;}.cls-7{fill:#f9c02c;}.cls-8{fill:#ccc;opacity:0.3;}.cls-9{mask:url(#mask-2);}.cls-10{fill:#d8d8d8;mix-blend-mode:overlay;}.cls-11{fill:#fff;}.cls-12{filter:url(#luminosity-noclip);}</style><filter id="luminosity-noclip" x="4.09" y="-8234.04" width="2.92" height="32766" filterUnits="userSpaceOnUse" color-interpolation-filters="sRGB"><feFlood flood-color="#fff" result="bg"/><feBlend in="SourceGraphic" in2="bg"/></filter><mask id="mask" x="4.09" y="-8234.04" width="2.92" height="32766" maskUnits="userSpaceOnUse"><g class="cls-12"/></mask><linearGradient id="linear-gradient" x1="5.54" y1="7.47" x2="5.54" y2="26.23" gradientTransform="matrix(1, 0, 0, -1, 0, 37.19)" gradientUnits="userSpaceOnUse"><stop offset="0.21" stop-color="#fff"/><stop offset="0.24" stop-color="#f1f1f1"/><stop offset="0.46" stop-color="#9c9c9c"/><stop offset="0.65" stop-color="#595959"/><stop offset="0.81" stop-color="#292929"/><stop offset="0.93" stop-color="#0b0b0b"/><stop offset="1"/></linearGradient><filter id="luminosity-noclip-2" x="4.09" y="11.2" width="2.92" height="18.75" filterUnits="userSpaceOnUse" color-interpolation-filters="sRGB"><feFlood flood-color="#fff" result="bg"/><feBlend in="SourceGraphic" in2="bg"/></filter><mask id="mask-2" x="4.09" y="11.2" width="2.92" height="18.75" maskUnits="userSpaceOnUse"><g class="cls-1"><path class="cls-2" d="M7,11.2l-2.91.52V30A22.86,22.86,0,0,1,7,29.51Z"/></g></mask></defs><g class="cls-3"><g id="레이어_2" data-name="레이어 2"><g id="레이어_3" data-name="레이어 3"><path class="cls-4" d="M1.14,25.94s1.58,4.28,13.74,4.28,14.46-4.28,14.46-4.28l.73-23.13S13.17-3.52,0,2.81Z"/><path class="cls-5" d="M27,24.91V4.69h0c0,1.12-5.25,2-11.74,2s-11.74-.92-11.74-2h0V24.91s0,2.9,11.11,2.9S27,24.91,27,24.91Z"/><path class="cls-6" d="M19.19,27.67A16.18,16.18,0,0,0,27,24.91V4.69h0c0,.89-3.27,1.64-7.84,1.92V27.67Z"/><path class="cls-7" d="M15.29,2.64c-6.48,0-11.74.92-11.74,2.05s5.26,2,11.74,2S27,5.81,27,4.69,21.78,2.64,15.29,2.64Z"/><path class="cls-7" d="M4,4.69c0-1.12,5.14-2,11.52-2.05h-.23c-6.48,0-11.74.92-11.74,2.05s5.26,2,11.74,2h.23C9.14,6.71,4,5.8,4,4.69Z"/><path class="cls-8" d="M25.6,25.51c0,1.25-4.44,3.11-10.33,3.11s-11-1.86-11-3.11S9,23.25,14.93,23.25,25.6,24.26,25.6,25.51Z"/><path class="cls-8" d="M23.06,26.25c0,1-3.38,2.37-7.87,2.37s-8.38-1.41-8.38-2.37,3.64-1.72,8.12-1.72S23.06,25.3,23.06,26.25Z"/><g class="cls-9"><path class="cls-10" d="M7,13.2,4.09,11.72V25A8.39,8.39,0,0,0,7,26.51Z"/></g><circle class="cls-11" cx="5.71" cy="3.85" r="1.12"/><circle class="cls-11" cx="9.53" cy="4.54" r="1.81"/><circle class="cls-11" cx="16.48" cy="4.86" r="1"/><circle class="cls-11" cx="20.29" cy="3.28" r="1.25"/><circle class="cls-11" cx="23.56" cy="3.28" r="1.05"/><circle class="cls-11" cx="23.42" cy="5.03" r="1.31"/><circle class="cls-11" cx="20.54" cy="6.34" r="0.48"/><circle class="cls-11" cx="19.05" cy="4.97" r="1.78"/><circle class="cls-11" cx="11.79" cy="3.99" r="1"/><circle class="cls-11" cx="13.47" cy="3.98" r="1.56"/><circle class="cls-11" cx="18.74" cy="2.99" r="0.61"/><circle class="cls-11" cx="15.78" cy="3.45" r="0.83"/><circle class="cls-11" cx="13.42" cy="7.25" r="0.38"/><circle class="cls-11" cx="14.13" cy="6.54" r="0.38"/><circle class="cls-11" cx="6.61" cy="5.31" r="1.35"/><circle class="cls-11" cx="7.67" cy="3.45" r="0.94"/><circle class="cls-11" cx="10.79" cy="3.03" r="0.96"/><circle class="cls-11" cx="11.49" cy="5.25" r="1.01"/><circle class="cls-11" cx="12.79" cy="5.74" r="1.01"/><circle class="cls-11" cx="17.27" cy="3.72" r="0.79"/><circle class="cls-11" cx="21.27" cy="5.45" r="1.21"/><circle class="cls-11" cx="22.1" cy="4.2" r="1.08"/><circle class="cls-11" cx="22.19" cy="2.61" r="1.02"/><circle class="cls-11" cx="25.4" cy="5.03" r="1.07"/><circle class="cls-11" cx="19.29" cy="6.54" r="1.09"/><circle class="cls-11" cx="18.12" cy="10.28" r="0.9"/><circle class="cls-11" cx="18.14" cy="12.76" r="0.39"/><circle class="cls-11" cx="19.35" cy="11.72" r="0.4"/><circle class="cls-11" cx="15.36" cy="5.2" r="1.56"/></g></g></g></svg>