<svg xmlns="http://www.w3.org/2000/svg" viewBox="0 0 100 17.7"><defs><style>.cls-1{fill:#fb0;}</style></defs><g id="레이어_2" data-name="레이어 2"><g id="Layer_1" data-name="Layer 1"><path class="cls-1" d="M15.38,16.17a1.35,1.35,0,0,1-.54,1.28,1.32,1.32,0,0,1-1.38.1L9.78,15.7a1.31,1.31,0,0,0-1.19,0L4.9,17.52A1.33,1.33,0,0,1,3,16.12l.63-4.07a1.33,1.33,0,0,0-.37-1.13L.38,8A1.3,1.3,0,0,1,.07,6.62a1.31,1.31,0,0,1,1.05-.9l4.07-.67a1.31,1.31,0,0,0,1-.69L8.07.71a1.33,1.33,0,0,1,2.36,0l1.89,3.67a1.33,1.33,0,0,0,1,.7l4.06.7A1.33,1.33,0,0,1,18.06,8L15.16,11a1.32,1.32,0,0,0-.37,1.12Z"/><path class="cls-1" d="M35.77,16.17a1.35,1.35,0,0,1-.54,1.28,1.32,1.32,0,0,1-1.38.1L30.17,15.7a1.31,1.31,0,0,0-1.19,0l-3.7,1.82a1.33,1.33,0,0,1-1.9-1.4L24,12.05a1.3,1.3,0,0,0-.36-1.13L20.77,8a1.33,1.33,0,0,1,.74-2.24l4.06-.67a1.31,1.31,0,0,0,1-.69L28.46.71a1.33,1.33,0,0,1,2.36,0l1.89,3.67a1.33,1.33,0,0,0,1,.7l4.06.7a1.32,1.32,0,0,1,1,.9A1.34,1.34,0,0,1,38.45,8L35.55,11a1.32,1.32,0,0,0-.37,1.12Z"/><path class="cls-1" d="M56.16,16.17a1.35,1.35,0,0,1-.54,1.28,1.32,1.32,0,0,1-1.38.1L50.56,15.7a1.31,1.31,0,0,0-1.19,0l-3.7,1.82a1.33,1.33,0,0,1-1.9-1.4l.62-4.07A1.33,1.33,0,0,0,44,10.92L41.15,8a1.34,1.34,0,0,1-.31-1.34,1.33,1.33,0,0,1,1-.9L46,5.05a1.3,1.3,0,0,0,1-.69L48.85.71a1.33,1.33,0,0,1,2.36,0L53.1,4.39a1.32,1.32,0,0,0,1,.7l4.06.7a1.32,1.32,0,0,1,1,.9A1.34,1.34,0,0,1,58.84,8L55.94,11a1.29,1.29,0,0,0-.37,1.12Z"/><path class="cls-1" d="M76.54,16.17A1.33,1.33,0,0,1,76,17.45a1.3,1.3,0,0,1-1.37.1L70.94,15.7a1.29,1.29,0,0,0-1.18,0l-3.7,1.82a1.33,1.33,0,0,1-1.91-1.4l.63-4.07a1.33,1.33,0,0,0-.36-1.13L61.54,8a1.36,1.36,0,0,1-.31-1.35,1.33,1.33,0,0,1,1.05-.89l4.07-.67a1.32,1.32,0,0,0,1-.69L69.24.71a1.33,1.33,0,0,1,2.36,0l1.89,3.67a1.32,1.32,0,0,0,1,.7l4.07.7a1.31,1.31,0,0,1,1,.91A1.33,1.33,0,0,1,79.23,8L76.33,11A1.3,1.3,0,0,0,76,12.09Z"/><path class="cls-1" d="M96.93,16.17a1.33,1.33,0,0,1-.54,1.28,1.3,1.3,0,0,1-1.37.1L91.33,15.7a1.29,1.29,0,0,0-1.18,0l-3.7,1.82a1.33,1.33,0,0,1-1.91-1.4l.63-4.07a1.31,1.31,0,0,0-.37-1.13L81.93,8a1.33,1.33,0,0,1,.74-2.24l4.07-.67a1.3,1.3,0,0,0,1-.69L89.62.71A1.33,1.33,0,0,1,92,.72l1.89,3.67a1.33,1.33,0,0,0,1,.7l4.06.7a1.33,1.33,0,0,1,1,.9A1.35,1.35,0,0,1,99.61,8L96.71,11a1.32,1.32,0,0,0-.37,1.12Z"/></g></g></svg>