<svg xmlns="http://www.w3.org/2000/svg" viewBox="0 0 84.87 15.02"><defs><style>.cls-1{fill:#fb0;}.cls-2{fill:#7a7a7a;}</style></defs><g id="레이어_2" data-name="레이어 2"><g id="Layer_1" data-name="Layer 1"><path class="cls-1" d="M13.05,13.73a1.13,1.13,0,0,1-1.62,1.17L8.3,13.33a1.12,1.12,0,0,0-1,0L4.15,14.87A1.15,1.15,0,0,1,3,14.77a1.13,1.13,0,0,1-.45-1.09l.53-3.46a1.14,1.14,0,0,0-.31-1L.32,6.76A1.14,1.14,0,0,1,1,4.85L4.4,4.29a1.16,1.16,0,0,0,.82-.59L6.85.6a1.13,1.13,0,0,1,2,0l1.61,3.11a1.11,1.11,0,0,0,.81.6l3.45.59a1.13,1.13,0,0,1,.88.77,1.12,1.12,0,0,1-.27,1.14L12.87,9.31a1.12,1.12,0,0,0-.32.95Z"/><path class="cls-1" d="M30.36,13.73a1.13,1.13,0,0,1-1.63,1.17L25.6,13.33a1.1,1.1,0,0,0-1,0l-3.14,1.55a1.15,1.15,0,0,1-1.17-.11,1.12,1.12,0,0,1-.45-1.08l.53-3.46a1.14,1.14,0,0,0-.31-1l-2.44-2.5a1.15,1.15,0,0,1-.26-1.15,1.14,1.14,0,0,1,.89-.76l3.45-.56a1.14,1.14,0,0,0,.82-.59L24.15.6a1.14,1.14,0,0,1,2,0l1.6,3.11a1.11,1.11,0,0,0,.81.6L32,4.91a1.13,1.13,0,0,1,.89.77,1.14,1.14,0,0,1-.28,1.14L30.17,9.31a1.11,1.11,0,0,0-.31.95Z"/><path class="cls-1" d="M47.66,13.73A1.13,1.13,0,0,1,46,14.9l-3.12-1.57a1.12,1.12,0,0,0-1,0l-3.14,1.55a1.15,1.15,0,0,1-1.17-.11,1.12,1.12,0,0,1-.45-1.08l.53-3.46a1.14,1.14,0,0,0-.3-1l-2.44-2.5a1.14,1.14,0,0,1-.27-1.15,1.15,1.15,0,0,1,.89-.76L39,4.29a1.13,1.13,0,0,0,.81-.59L41.45.6a1.15,1.15,0,0,1,1-.6,1.13,1.13,0,0,1,1,.61l1.6,3.11a1.15,1.15,0,0,0,.82.6l3.44.59a1.13,1.13,0,0,1,.62,1.91L47.47,9.31a1.11,1.11,0,0,0-.31.95Z"/><path class="cls-2" d="M65,13.73a1.13,1.13,0,0,1-1.63,1.17l-3.12-1.57a1.12,1.12,0,0,0-1,0l-3.14,1.55a1.13,1.13,0,0,1-1.16-.11,1.11,1.11,0,0,1-.45-1.08L55,10.22a1.14,1.14,0,0,0-.31-1l-2.44-2.5A1.16,1.16,0,0,1,52,5.61a1.12,1.12,0,0,1,.89-.76l3.45-.56a1.16,1.16,0,0,0,.82-.59L58.76.6a1.13,1.13,0,0,1,1-.6,1.12,1.12,0,0,1,1,.61l1.61,3.11a1.11,1.11,0,0,0,.81.6l3.45.59a1.13,1.13,0,0,1,.61,1.91L64.78,9.31a1.12,1.12,0,0,0-.32.95Z"/><path class="cls-2" d="M82.27,13.73a1.13,1.13,0,0,1-1.63,1.17l-3.13-1.57a1.13,1.13,0,0,0-1,0l-3.14,1.55a1.17,1.17,0,0,1-1.17-.1,1.15,1.15,0,0,1-.45-1.09l.53-3.46a1.14,1.14,0,0,0-.31-1l-2.44-2.5a1.14,1.14,0,0,1-.26-1.14,1.12,1.12,0,0,1,.89-.77l3.45-.56a1.16,1.16,0,0,0,.82-.59L76.06.6a1.13,1.13,0,0,1,1-.6,1.12,1.12,0,0,1,1,.61l1.61,3.11a1.11,1.11,0,0,0,.81.6l3.45.59a1.13,1.13,0,0,1,.89.77,1.14,1.14,0,0,1-.28,1.14L82.08,9.31a1.12,1.12,0,0,0-.32.95Z"/></g></g></svg>